<svg width="50" height="50" viewBox="0 0 50 50" fill="none" xmlns="http://www.w3.org/2000/svg">
<path d="M18.7503 25C22.7712 25 26.042 21.7292 26.042 17.7083C26.042 13.6875 22.7712 10.4167 18.7503 10.4167C14.7295 10.4167 11.4587 13.6875 11.4587 17.7083C11.4587 21.7292 14.7295 25 18.7503 25ZM18.7503 14.5833C20.4795 14.5833 21.8753 15.9792 21.8753 17.7083C21.8753 19.4375 20.4795 20.8333 18.7503 20.8333C17.0212 20.8333 15.6253 19.4375 15.6253 17.7083C15.6253 15.9792 17.0212 14.5833 18.7503 14.5833ZM18.8545 35.4167H9.93783C12.0003 34.375 15.5628 33.3333 18.7503 33.3333C18.9795 33.3333 19.2295 33.3542 19.4587 33.3542C20.167 31.8333 21.3962 30.5833 22.8753 29.5833C21.3545 29.3125 19.917 29.1667 18.7503 29.1667C13.8753 29.1667 4.16699 31.6042 4.16699 36.4583V39.5833H18.7503V36.4583C18.7503 36.1042 18.792 35.75 18.8545 35.4167ZM34.3753 30.2083C30.542 30.2083 22.917 32.3125 22.917 36.4583V39.5833H45.8337V36.4583C45.8337 32.3125 38.2087 30.2083 34.3753 30.2083ZM36.8962 26.4167C38.4795 25.5208 39.5837 23.8333 39.5837 21.875C39.5837 20.4937 39.0349 19.1689 38.0582 18.1922C37.0814 17.2154 35.7567 16.6667 34.3753 16.6667C32.994 16.6667 31.6692 17.2154 30.6925 18.1922C29.7157 19.1689 29.167 20.4937 29.167 21.875C29.167 23.8333 30.2712 25.5208 31.8545 26.4167C32.6045 26.8333 33.4587 27.0833 34.3753 27.0833C35.292 27.0833 36.1462 26.8333 36.8962 26.4167Z" fill="black"/>
</svg>
