<svg width="40" height="40" viewBox="0 0 40 40" fill="none" xmlns="http://www.w3.org/2000/svg">
<path d="M20 18.3333C21.3807 18.3333 22.5 17.2141 22.5 15.8333C22.5 14.4526 21.3807 13.3333 20 13.3333C18.6193 13.3333 17.5 14.4526 17.5 15.8333C17.5 17.2141 18.6193 18.3333 20 18.3333Z" fill="url(#paint0_linear_2_38)"/>
<path d="M20 3.33334C16.4868 3.33317 13.1154 4.71961 10.6187 7.19133C8.12205 9.66305 6.7018 13.0203 6.66667 16.5333C6.66667 25.6667 18.4167 35.8333 18.9167 36.2667C19.2186 36.5249 19.6027 36.6668 20 36.6668C20.3973 36.6668 20.7814 36.5249 21.0833 36.2667C21.6667 35.8333 33.3333 25.6667 33.3333 16.5333C33.2982 13.0203 31.8779 9.66305 29.3813 7.19133C26.8846 4.71961 23.5132 3.33317 20 3.33334ZM20 21.6667C18.8463 21.6667 17.7185 21.3246 16.7592 20.6836C15.7999 20.0426 15.0522 19.1316 14.6107 18.0657C14.1692 16.9998 14.0537 15.8269 14.2788 14.6953C14.5038 13.5638 15.0594 12.5244 15.8752 11.7086C16.691 10.8927 17.7304 10.3372 18.862 10.1121C19.9935 9.88702 21.1664 10.0025 22.2323 10.444C23.2982 10.8856 24.2093 11.6332 24.8502 12.5925C25.4912 13.5518 25.8333 14.6796 25.8333 15.8333C25.8333 17.3804 25.2188 18.8642 24.1248 19.9581C23.0308 21.0521 21.5471 21.6667 20 21.6667Z" fill="url(#paint1_linear_2_38)"/>
<defs>
<linearGradient id="paint0_linear_2_38" x1="17.5" y1="13.3333" x2="22.5" y2="18.3333" gradientUnits="userSpaceOnUse">
<stop stop-color="#00CDD0"/>
<stop offset="0.5" stop-color="#5656D2"/>
<stop offset="1" stop-color="#9400D4"/>
</linearGradient>
<linearGradient id="paint1_linear_2_38" x1="6.66667" y1="3.33334" x2="39.1871" y2="29.3496" gradientUnits="userSpaceOnUse">
<stop stop-color="#00CDD0"/>
<stop offset="0.5" stop-color="#5656D2"/>
<stop offset="1" stop-color="#9400D4"/>
</linearGradient>
</defs>
</svg>
