<svg width="173" height="81" viewBox="0 0 173 81" fill="none" xmlns="http://www.w3.org/2000/svg">
<g clip-path="url(#clip0_3_91)">
<rect x="15" y="13" width="58" height="58" rx="10" fill="url(#paint0_linear_3_91)"/>
<path d="M23.8268 22.4961H29.6862C33.1584 22.4961 36.0664 23.5378 38.4102 25.6211C39.1263 25.6211 39.7339 26.0117 40.2331 26.793V26.9232C39.5386 27.0968 39.1914 27.3138 39.1914 27.5742C39.6688 27.5742 40.1463 27.7044 40.6237 27.9648L41.0143 27.8346V27.9648L40.8841 28.7461L41.5352 28.8763L41.0143 30.569V31.0898L41.1445 31.2201L41.0143 31.3503V31.4805L41.1445 32.7826L40.7539 32.9128L40.6237 32.7826H40.4935L40.1029 32.9128V33.5638C41.0577 33.8459 41.5352 34.3668 41.5352 35.1263C42.056 35.1263 42.3164 35.2131 42.3164 35.3867V35.5169L41.5352 35.6471V36.168L41.6654 36.0378H42.056V36.168C42.056 36.3633 41.839 36.4935 41.4049 36.5586L41.7956 37.2096L41.5352 37.7305L41.6654 38.1211C41.5135 38.9891 41.0794 39.4232 40.3633 39.4232C40.3633 39.8572 40.0595 40.0742 39.4518 40.0742V40.2044L39.582 40.8555H39.4518L38.6706 40.5951L38.5404 40.7253V40.9857L38.931 41.1159C38.8008 41.6367 38.4536 41.8971 37.8893 41.8971V41.7669L38.0195 41.3763L37.8893 41.2461H37.6289L37.3685 41.5065L37.4987 42.0273L37.3685 42.1576V42.2878L37.6289 42.6784L38.2799 42.2878L38.6706 42.418L38.4102 43.4596C38.9527 43.6115 39.4735 44.0022 39.9727 44.6315H41.4049V44.7617C41.1445 44.7617 41.0143 44.8485 41.0143 45.0221L41.2747 45.2826L41.6654 45.0221L42.056 45.2826H42.707V45.8034L42.056 45.9336L42.1862 46.0638V46.194L41.9258 46.7148L42.056 46.8451H42.1862L42.5768 46.5846H42.707L42.4466 46.9753L42.8372 47.4961V47.6263C42.8372 47.865 42.4032 48.082 41.5352 48.2773C40.9275 48.1037 40.6237 47.8867 40.6237 47.6263H40.4935C40.4935 48.2339 40.2765 48.668 39.8424 48.9284L40.1029 49.1888H40.2331C40.2331 48.9284 40.3199 48.7982 40.4935 48.7982C41.2747 48.885 41.6654 49.0586 41.6654 49.319L41.1445 49.9701H41.0143C41.0143 49.7096 40.7973 49.5794 40.3633 49.5794V50.1003C40.6237 50.1003 40.7973 50.3173 40.8841 50.7513L41.5352 50.8815H41.6654V50.1003C42.0126 50.1003 42.1862 50.0135 42.1862 49.8398V49.5794L41.9258 49.1888V49.0586C41.9258 48.885 42.1428 48.7982 42.5768 48.7982C42.5768 48.4076 42.7938 48.1471 43.2279 48.0169L43.3581 48.1471V48.2773L42.4466 49.319V49.4492L42.9674 50.1003V50.4909C42.9674 50.6645 42.8372 50.7513 42.5768 50.7513L42.707 51.4023C42.5334 51.4023 42.3598 52.0968 42.1862 53.4857L42.5768 53.6159V53.8763C42.3381 54.115 41.9909 55.2435 41.5352 57.2617C41.253 57.6089 41.036 58.3468 40.8841 59.4753C40.7105 59.4753 39.8424 60.3433 38.2799 62.0794C36.674 63.0777 35.0681 63.8589 33.4622 64.4232C33.115 64.2496 32.6376 64.1628 32.0299 64.1628H30.9883L30.8581 64.0326L30.7279 64.1628H25.5195L25.3893 64.293L25.2591 64.1628H24.0872L23.957 64.293L23.8268 64.1628H23.5664L23.1758 64.293C21.8737 64.2062 21.2227 63.9891 21.2227 63.6419L21.3529 63.2513L21.0924 59.4753L21.2227 58.5638L21.0924 58.4336V58.3034L21.3529 57.7826L21.2227 57.6523V56.8711L21.3529 56.7409L21.0924 55.8294L21.2227 54.5273L21.0924 54.3971V54.2669L21.4831 53.2253C21.2878 53.2253 21.1576 52.5308 21.0924 51.1419H21.2227L21.0924 51.0117V49.7096L21.2227 48.668L21.0924 47.6263L21.2227 46.3242L21.0924 45.6732L21.4831 45.2826L21.3529 45.1523L21.2227 44.7617H21.0924L21.2227 44.1107C21.2227 43.6766 21.1359 43.4596 20.9622 43.4596L21.0924 43.3294V41.8971L21.2227 41.1159L21.0924 40.9857V40.8555L21.2227 40.3346L21.0924 39.6836L21.2227 39.0326L20.9622 38.7721L21.2227 37.9909L20.9622 36.9492L21.2227 35.9076L20.9622 35.2565L21.0924 34.3451L20.9622 33.694L21.0924 33.043L20.9622 32.2617L21.2227 31.8711L20.9622 30.3086L21.0924 29.918L20.9622 29.7878V29.6576L21.0924 28.8763L20.832 28.6159L20.9622 27.444L20.832 26.0117L21.0924 25.6211L20.9622 24.7096V22.7565H21.0924L23.8268 22.4961ZM43.0977 26.1419V26.5326H42.9674L42.707 26.2721L42.8372 26.1419H43.0977ZM30.0768 29.0065C30.0768 29.7878 29.8598 30.1784 29.4258 30.1784V30.569L29.556 30.4388H29.6862L30.207 30.9596L30.0768 31.0898V31.2201L29.2956 30.9596C29.1871 31.3937 29.0569 31.6107 28.9049 31.6107H28.7747L28.6445 30.9596V30.8294C28.6445 30.6558 28.7747 30.569 29.0352 30.569V30.4388C29.0352 30.2652 28.9049 30.1784 28.6445 30.1784L28.5143 30.3086H28.3841L27.8633 30.1784H27.7331V30.6992L28.1237 31.0898C27.8633 31.6107 27.7331 32.5221 27.7331 33.8242V37.0794C27.7331 37.253 27.9501 37.3398 28.3841 37.3398C28.3841 37.5569 28.6445 37.7739 29.1654 37.9909V38.1211L29.0352 38.2513H28.5143L28.3841 38.1211C27.9935 38.2947 27.7765 38.4683 27.7331 38.6419L27.8633 38.7721L28.6445 38.5117C29.2522 38.5985 29.556 38.9023 29.556 39.4232C31.5091 39.4232 32.8112 38.9891 33.4622 38.1211L33.9831 36.819L34.6341 36.9492C34.6341 36.6888 34.8945 36.5586 35.4154 36.5586V36.4284C35.4154 36.2548 35.1984 36.168 34.7643 36.168L34.6341 35.5169L34.7643 34.9961L34.3737 34.6055L34.5039 33.9544L34.3737 32.6523L34.6341 32.3919L34.2435 31.7409V31.4805L34.5039 31.2201H34.6341V31.6107H34.8945V30.569C34.7209 30.569 34.6341 30.352 34.6341 29.918H34.3737L33.5924 30.569L33.4622 30.4388L33.5924 29.7878V29.6576L32.4206 29.7878L30.5977 29.0065H30.0768ZM36.0664 30.8294V30.9596H36.3268V30.569L36.0664 30.8294ZM30.3372 32.0013L30.5977 32.3919L30.3372 32.6523H29.9466V32.3919L30.3372 32.0013ZM24.2174 36.5586L24.3477 36.6888H24.6081V36.168L24.2174 36.5586ZM39.582 36.5586L39.3216 36.9492V37.0794L39.4518 37.7305C40.0812 37.7305 40.4718 37.5135 40.6237 37.0794L39.582 36.5586ZM34.3737 39.1628L34.5039 39.8138H34.7643L35.0247 39.5534V39.293L34.3737 39.1628ZM38.0195 40.7253V41.1159H38.1497L38.4102 40.8555L38.2799 40.7253H38.0195ZM36.5872 41.2461V41.7669H36.7174L36.9779 41.5065V41.2461H36.5872ZM28.6445 41.5065L28.9049 41.7669H29.0352V41.5065H28.6445ZM35.6758 41.6367L35.5456 42.5482H35.806L36.0664 42.2878V41.8971L35.806 41.6367H35.6758ZM26.431 41.8971L26.3008 42.6784H25.7799L25.6497 42.1576H25.5195L24.8685 42.2878V42.418L25.2591 42.9388C24.8251 43.1558 24.6081 43.5464 24.6081 44.1107H25.1289C25.3893 43.6766 25.5195 43.2426 25.5195 42.8086L25.6497 42.6784H25.7799C25.8885 43.0256 26.2791 43.1992 26.9518 43.1992V43.3294H26.5612V43.7201L26.6914 43.8503V43.9805H26.431L26.3008 43.8503H26.1706V44.1107L27.4727 44.5013L28.1237 44.3711V44.2409L27.8633 43.9805L28.7747 42.8086C28.5143 42.5482 28.3841 42.2444 28.3841 41.8971H28.1237L27.2122 42.418L27.082 42.2878V42.1576L27.2122 42.0273L27.082 41.8971H26.431ZM30.7279 42.0273V42.2878H31.2487V42.0273H30.7279ZM36.3268 42.418V42.5482L36.457 42.6784V42.8086L36.1966 43.069V43.3294H36.7174L36.5872 42.418H36.3268ZM31.1185 42.9388V43.3294H31.5091V43.1992L31.2487 42.9388H31.1185ZM25.3893 44.5013V44.6315H25.9102V44.8919L25.6497 45.2826L26.0404 45.543H26.3008V44.6315L25.6497 44.2409L25.3893 44.5013ZM39.1914 44.5013V44.6315L39.582 45.1523L39.7122 45.0221H39.8424L39.4518 44.5013L39.3216 44.6315L39.1914 44.5013ZM28.9049 45.6732V45.9336C28.5794 46.0421 28.2756 46.2591 27.9935 46.5846L28.1237 46.7148V46.9753L27.8633 47.2357L27.9935 47.3659V47.4961L27.8633 48.1471H28.3841L27.8633 49.7096V50.3607L28.2539 50.7513L27.9935 51.793L28.5143 52.0534V52.3138C28.1671 52.3138 27.9935 52.4006 27.9935 52.5742L28.2539 52.9648V53.0951L28.1237 53.2253V53.3555H28.2539L27.9935 53.7461L28.1237 53.8763L27.8633 57.2617L27.9935 57.9128H30.5977C32.9414 57.4136 34.1133 56.7192 34.1133 55.8294C34.4605 55.6558 34.8077 54.7878 35.1549 53.2253L35.0247 53.0951L35.1549 52.0534L35.0247 50.3607H35.1549C34.6124 47.2357 33.1367 45.6732 30.7279 45.6732H28.9049ZM40.7539 46.9753V47.2357H41.1445L41.4049 46.9753V46.8451L40.7539 46.9753ZM40.2331 53.7461V53.8763L40.4935 54.3971H40.8841L40.6237 53.4857H40.4935L40.2331 53.7461ZM39.4518 53.7461V53.8763L39.8424 54.2669L39.9727 54.1367V53.7461H39.4518ZM39.4518 54.918V55.0482H39.8424V55.8294L40.1029 56.0898L40.3633 55.8294V55.6992L40.2331 55.569L40.3633 55.4388V55.3086C40.3633 55.135 40.1897 55.0482 39.8424 55.0482V54.6576H39.7122L39.4518 54.918ZM25.6497 70.2826H25.7799C26.431 70.2826 26.7782 70.4128 26.8216 70.6732L26.5612 70.9336C25.7799 70.8251 25.3893 70.6949 25.3893 70.543L25.6497 70.2826ZM49.3802 21.5846C49.8576 21.9319 50.5955 22.1055 51.5938 22.1055L51.9844 21.9753C52.9392 22.1923 53.4167 22.4527 53.4167 22.7565L53.2865 23.1471L53.4167 24.5794V24.9701C53.4167 26.0117 53.2865 26.5326 53.026 26.5326L53.2865 28.2253V29.918C53.2865 30.786 53.1997 31.2201 53.026 31.2201L53.1562 31.8711V32.7826L53.2865 32.9128V33.043L53.026 33.3034V33.8242L53.1562 34.4753L52.8958 34.7357L53.5469 35.3867H53.6771C53.8507 35.3867 53.9375 35.2565 53.9375 34.9961L54.0677 34.8659H54.1979L54.5885 35.2565L54.4583 35.3867V35.5169L54.3281 35.3867H54.0677L53.8073 35.6471V35.9076H54.7188V36.0378C54.6536 36.3416 54.3932 36.602 53.9375 36.819H53.8073L53.5469 36.5586H53.6771C53.4818 36.0378 53.3082 35.7773 53.1562 35.7773L52.7656 36.0378L52.8958 36.6888V36.9492L52.7656 38.1211L53.026 38.7721C52.809 39.0326 52.4618 39.1628 51.9844 39.1628V39.293L52.375 40.4648L52.2448 41.2461C52.5269 41.2461 52.7439 41.8537 52.8958 43.069H53.026C53.026 42.5482 53.1128 42.2878 53.2865 42.2878L54.1979 42.418V42.2878L53.5469 40.3346C54.5234 40.3346 55.1311 41.1159 55.3698 42.6784H55.5C56.3681 42.6784 56.8021 42.3312 56.8021 41.6367C56.8021 41.0291 57.1493 40.5516 57.8438 40.2044L58.1042 39.6836L59.7969 39.5534L61.75 39.944L62.2708 39.8138C62.7917 39.9006 63.0521 40.0308 63.0521 40.2044C63.0521 40.6168 62.7917 40.964 62.2708 41.2461L61.8802 40.9857H61.75L61.4896 41.2461V41.6367L61.75 42.0273V42.2878C61.4896 42.2878 61.3594 42.5916 61.3594 43.1992C60.8385 43.1992 60.4913 43.7635 60.3177 44.8919C59.7101 45.7383 59.3194 46.1723 59.1458 46.194L58.625 45.8034L58.3646 46.0638H58.2344C57.2795 46.0638 56.8021 45.2826 56.8021 43.7201C56.8021 43.1124 56.7153 42.8086 56.5417 42.8086H55.8906C55.283 43.0039 54.9792 43.6115 54.9792 44.6315L55.1094 45.8034C54.7405 46.1506 54.3932 46.3242 54.0677 46.3242C53.4601 46.3242 53.1562 45.9336 53.1562 45.1523L53.026 44.3711H52.8958L52.6354 45.9336L52.7656 46.3242L52.5052 46.8451L52.7656 48.4076L52.6354 48.5378V48.668L52.7656 49.1888L52.6354 50.6211C52.7005 51.1419 52.7873 51.4023 52.8958 51.4023L52.7656 51.5326V51.6628L52.8958 52.3138C52.8307 52.8346 52.7439 53.0951 52.6354 53.0951L52.8958 55.0482L52.7656 56.4805L52.8958 56.6107H52.7656L53.026 57.5221L52.8958 59.2148H53.026L52.375 60.7773C53.4167 61.9275 53.9375 62.7522 53.9375 63.2513C53.9375 63.6853 53.3299 63.9023 52.1146 63.9023H48.0781L47.6875 63.6419H47.4271L47.2969 63.7721H47.1667L46.9062 63.3815V62.9909H47.0365L47.6875 63.1211V62.6003L47.2969 61.0378L47.6875 60.6471C47.6875 60.2131 47.4271 59.9093 46.9062 59.7357V59.6055C47.3403 59.6055 47.5573 59.5187 47.5573 59.3451V59.0846C47.2318 59.0846 46.9714 58.5204 46.776 57.3919L46.9062 57.2617V57.1315L46.776 56.4805L46.9062 55.3086L46.776 54.1367L46.9062 54.0065V53.8763L46.776 53.3555V53.0951H47.1667V52.8346L46.6458 52.7044L46.776 52.0534L46.6458 49.5794L46.9062 48.4076L46.6458 47.3659L47.1667 46.5846V46.4544L46.776 45.8034L47.0365 42.6784C46.8628 42.6784 46.7326 42.418 46.6458 41.8971L47.0365 40.0742L46.6458 39.944V39.6836C46.6458 39.51 46.776 39.4232 47.0365 39.4232L47.1667 39.293V39.0326C47.1667 38.8155 46.8194 38.6419 46.125 38.5117V38.2513C46.3637 38.2513 46.5373 37.2964 46.6458 35.3867L46.5156 34.8659L46.6458 34.4753C46.2986 34.3451 46.125 34.2148 46.125 34.0846L46.5156 33.4336V33.043C46.5156 32.826 46.342 32.6957 45.9948 32.6523V32.5221C46.342 32.5221 46.5156 32.4353 46.5156 32.2617V30.569L46.3854 30.4388L46.5156 30.3086V27.3138L46.2552 26.2721L46.5156 25.8815L46.3854 25.4909L46.5156 23.9284L46.3854 23.4076L46.5156 22.8867V22.7565L46.3854 22.6263V22.4961L46.776 22.2357H48.0781C48.447 22.2357 48.8811 22.0187 49.3802 21.5846ZM62.401 21.9753L62.9219 22.2357L63.3125 22.1055L63.7031 22.6263L63.9635 22.1055L64.7448 22.3659L65.3958 22.2357C66.0035 22.2357 66.3073 22.4527 66.3073 22.8867H66.5677L66.9583 22.6263H67.0885L67.2188 23.2773C66.8064 23.2773 66.3724 23.451 65.9167 23.7982L66.1771 24.319L67.0885 24.1888H67.349L68 24.4492V24.7096C67.9566 24.9701 67.6094 25.1003 66.9583 25.1003C66.9583 24.8398 66.8715 24.7096 66.6979 24.7096V24.8398L66.9583 25.2305V25.6211H66.1771V25.7513L66.3073 26.2721L66.0469 26.9232C66.0469 27.1619 66.3507 27.3789 66.9583 27.5742V27.9648H66.8281L66.4375 27.5742C66.2856 27.5742 65.9384 27.9648 65.3958 28.7461L64.6146 28.8763L62.9219 28.6159L61.6198 28.7461L61.4896 28.6159L60.8385 28.7461H59.6667L58.8854 28.8763L58.2344 28.7461L57.974 29.0065L57.5833 28.7461H57.3229C56.954 29.0065 56.52 29.1367 56.0208 29.1367V29.0065L55.1094 29.3971V29.2669L54.9792 28.7461L55.1094 28.2253C54.9358 28.0082 54.7188 26.576 54.4583 23.9284L54.3281 23.7982L54.4583 23.2773V23.1471L54.3281 23.0169C54.4366 22.4961 54.5668 22.2357 54.7188 22.2357H58.1042L59.1458 22.3659L60.1875 22.2357H60.4479L62.0104 22.3659L62.401 21.9753ZM65.7865 22.7565V23.0169H66.1771L65.9167 22.7565H65.7865ZM75.0312 22.6263H75.2917V23.0169L75.0312 23.2773H74.901L75.0312 22.6263ZM55.8906 23.5378V24.0586H56.2812V23.7982L56.0208 23.5378H55.8906ZM72.9479 24.4492H73.0781L73.8594 24.8398L73.9896 24.4492H74.1198L74.5104 24.8398V24.9701C74.5104 25.3173 73.7726 25.4909 72.2969 25.4909L72.1667 25.3607V25.2305L72.9479 24.4492ZM78.9375 24.4492H79.1979C79.1979 24.9701 78.6771 25.3607 77.6354 25.6211C77.2882 25.3607 76.724 25.2305 75.9427 25.2305L75.8125 25.1003V24.7096H76.2031V24.9701C78.026 24.7964 78.9375 24.6228 78.9375 24.4492ZM75.2917 24.7096V25.4909H75.0312L74.901 24.9701L75.2917 24.7096ZM47.4271 24.9701L47.1667 26.0117L47.2969 26.1419H47.8177L48.0781 25.3607H47.9479L47.4271 24.9701ZM70.7344 24.9701L70.9948 25.2305V25.3607H70.474V25.2305L70.7344 24.9701ZM50.5521 26.793V27.3138C50.7691 27.3138 51.0295 27.0968 51.3333 26.6628L51.2031 26.2721H51.0729L50.5521 26.793ZM48.2083 26.4023V26.9232H48.599V26.6628L48.3385 26.4023H48.2083ZM70.474 26.4023L71.3854 26.5326H71.6458L71.776 26.9232L70.8646 27.5742H70.6042V27.3138H70.474L70.6042 27.1836V27.0534L70.474 26.4023ZM68.3906 27.1836L69.0417 27.8346L68.651 27.9648L68 27.8346L68.3906 27.1836ZM49.1198 27.444V27.5742L49.3802 27.8346H49.5104V27.444H49.1198ZM50.4219 31.0898L50.2917 31.8711H50.4219L51.0729 31.7409L51.5938 31.8711V31.7409C51.5938 31.4805 51.2031 31.2635 50.4219 31.0898ZM48.4688 31.8711H48.599C48.599 31.6975 48.816 31.6107 49.25 31.6107L49.3802 31.4805V31.2201H48.8594C48.7075 31.2201 48.5773 31.4371 48.4688 31.8711ZM48.0781 32.5221V32.9128H48.4688V32.7826L48.2083 32.5221H48.0781ZM50.6823 32.9128L50.8125 33.043H51.0729V32.6523H50.9427L50.6823 32.9128ZM55.1094 33.4336H55.5C55.5 33.694 55.5868 33.8242 55.7604 33.8242L56.5417 33.5638V33.694L56.0208 34.0846L55.8906 34.2148V34.3451C55.5651 34.2582 55.3047 33.9544 55.1094 33.4336ZM56.5417 33.9544H56.8021L57.8438 34.0846V34.3451H56.6719L56.5417 33.9544ZM49.6406 34.4753V34.6055C49.7274 35.2999 49.8576 35.6471 50.0312 35.6471H50.2917L50.8125 35.1263C50.2917 34.6923 49.901 34.4753 49.6406 34.4753ZM51.2031 34.7357V34.8659L51.4635 35.1263L51.5938 34.9961V34.7357H51.2031ZM56.5417 34.6055H56.6719L56.9323 34.8659H56.5417V34.6055ZM47.0365 36.5586V36.819C47.0365 37.253 47.2101 37.5135 47.5573 37.6003L47.8177 37.3398H48.3385C48.5122 37.3398 48.599 37.4701 48.599 37.7305L48.8594 37.4701V37.0794C48.4253 37.0143 48.2083 36.8841 48.2083 36.6888V36.4284L48.4688 36.0378V35.7773H47.9479L47.0365 36.5586ZM50.1615 36.5586L50.0312 36.6888V36.819C50.0964 37.0794 50.4436 37.2096 51.0729 37.2096L51.4635 38.2513C51.9844 38.1862 52.2448 38.0994 52.2448 37.9909C52.2448 37.2747 51.941 36.7973 51.3333 36.5586H51.0729L50.5521 36.6888L50.1615 36.5586ZM49.6406 36.9492L49.5104 37.0794V37.2096L49.6406 37.6003H50.0312V37.3398L49.6406 36.9492ZM50.1615 37.8607V38.2513L50.5521 37.8607V37.7305L50.1615 37.8607ZM49.7708 39.4232L49.6406 39.5534V39.8138L50.0312 40.2044H50.2917V39.944L49.7708 39.4232ZM48.3385 39.944V40.0742L49.1198 40.8555L48.3385 40.9857V41.1159C48.6858 41.4848 48.8594 41.832 48.8594 42.1576V42.8086L49.3802 43.069H50.0312L50.5521 42.418L50.1615 41.1159C49.9878 41.1159 49.901 40.9423 49.901 40.5951L49.7708 40.4648H49.6406L49.1198 40.5951C49.1198 40.161 48.8594 39.944 48.3385 39.944ZM60.5781 40.0742V40.2044L60.7083 41.1159C61.316 40.7904 61.6198 40.4865 61.6198 40.2044L61.4896 40.0742H60.5781ZM47.1667 41.2461L47.4271 42.8086H47.6875L47.9479 42.5482V42.418L47.5573 41.7669L47.6875 41.2461L47.5573 41.1159H47.4271L47.2969 41.2461H47.1667ZM62.5312 41.7669C62.9002 41.7669 63.1172 42.2878 63.1823 43.3294L62.9219 43.5898V43.8503C62.9219 44.0239 63.0955 44.1107 63.4427 44.1107L63.1823 44.7617H62.7917C62.3576 44.5881 62.1406 44.2843 62.1406 43.8503V43.7201L62.6615 43.5898V43.4596L62.2708 43.069L62.1406 43.1992H62.0104V42.9388C62.4661 42.9388 62.7266 42.8086 62.7917 42.5482C62.7917 42.3746 62.6615 42.2878 62.401 42.2878L62.2708 42.1576V42.0273L62.5312 41.7669ZM63.9635 42.8086H64.0938V42.9388L63.8333 43.3294V43.4596C63.8333 43.6332 63.9635 43.7201 64.224 43.7201L64.3542 43.8503V43.9805H64.224C63.8767 43.9805 63.7031 43.7635 63.7031 43.3294H63.5729L63.9635 42.8086ZM51.4635 45.9336V46.194H51.8542V45.9336H51.4635ZM50.8125 47.2357V47.4961C51.0729 47.4961 51.2031 47.7131 51.2031 48.1471H51.4635V47.4961L50.8125 47.2357ZM54.9792 57.3919H57.3229L57.8438 57.7826L58.625 57.3919L59.1458 57.5221L59.6667 57.3919L60.0573 57.5221L60.5781 57.3919H60.8385V57.5221L62.401 57.3919H64.3542C64.4193 57.9996 64.5061 58.3034 64.6146 58.3034L64.4844 58.9544V59.8659L64.3542 59.9961L64.4844 60.1263V60.6471L64.224 60.9076C64.0503 60.9076 63.9635 60.6905 63.9635 60.2565H63.5729V60.7773L60.4479 59.7357V59.9961C61.4896 60.2782 62.0104 60.6254 62.0104 61.0378L61.2292 61.2982C61.4028 61.5586 61.5764 62.3832 61.75 63.7721L61.6198 63.9023L61.2292 63.7721L60.5781 63.9023L60.0573 63.7721L59.276 63.9023L58.7552 63.7721L57.1927 63.9023C56.6719 63.9457 56.151 63.7287 55.6302 63.2513C55.5217 63.6419 55.3481 63.8589 55.1094 63.9023L54.849 63.6419L55.3698 62.2096L54.849 58.8242V58.043L54.9792 57.3919ZM57.3229 58.3034V58.5638H57.1927C57.2795 59.6055 57.4531 60.1263 57.7135 60.1263L57.974 59.8659L57.8438 59.2148L58.1042 58.9544L57.4531 58.3034H57.3229ZM62.1406 60.7773C63.7031 60.7773 64.4844 61.168 64.4844 61.9492V62.0794L64.3542 62.8607L64.4844 63.2513C64.3542 63.5985 64.224 63.7721 64.0938 63.7721H63.0521L62.9219 63.1211L63.0521 62.2096C62.8134 62.2096 62.5095 61.7756 62.1406 60.9076V60.7773ZM65.526 69.1107L66.0469 69.2409V69.5013L65.7865 69.7617C65.3524 69.6532 65.1354 69.523 65.1354 69.3711V69.2409L65.526 69.1107ZM63.3125 69.3711L63.8333 69.5013V69.6315C63.8333 69.8051 63.2257 69.9787 62.0104 70.1523V70.0221C62.0104 69.8268 62.4444 69.6098 63.3125 69.3711ZM68.2604 69.5013L68.5208 69.7617L68.3906 69.8919V70.0221L68 69.8919V69.7617L68.2604 69.5013ZM67.4792 69.6315H67.8698L68 70.2826H67.6094L67.4792 69.6315ZM69.0417 69.7617H69.4323L69.1719 70.0221H69.0417V69.7617Z" fill="white"/>
<path d="M93.8268 22.4961H99.6862C103.158 22.4961 106.066 23.5378 108.41 25.6211C109.126 25.6211 109.734 26.0117 110.233 26.793V26.9232C109.539 27.0968 109.191 27.3138 109.191 27.5742C109.669 27.5742 110.146 27.7044 110.624 27.9648L111.014 27.8346V27.9648L110.884 28.7461L111.535 28.8763L111.014 30.569V31.0898L111.145 31.2201L111.014 31.3503V31.4805L111.145 32.7826L110.754 32.9128L110.624 32.7826H110.493L110.103 32.9128V33.5638C111.058 33.8459 111.535 34.3668 111.535 35.1263C112.056 35.1263 112.316 35.2131 112.316 35.3867V35.5169L111.535 35.6471V36.168L111.665 36.0378H112.056V36.168C112.056 36.3633 111.839 36.4935 111.405 36.5586L111.796 37.2096L111.535 37.7305L111.665 38.1211C111.513 38.9891 111.079 39.4232 110.363 39.4232C110.363 39.8572 110.059 40.0742 109.452 40.0742V40.2044L109.582 40.8555H109.452L108.671 40.5951L108.54 40.7253V40.9857L108.931 41.1159C108.801 41.6367 108.454 41.8971 107.889 41.8971V41.7669L108.02 41.3763L107.889 41.2461H107.629L107.368 41.5065L107.499 42.0273L107.368 42.1576V42.2878L107.629 42.6784L108.28 42.2878L108.671 42.418L108.41 43.4596C108.953 43.6115 109.474 44.0022 109.973 44.6315H111.405V44.7617C111.145 44.7617 111.014 44.8485 111.014 45.0221L111.275 45.2826L111.665 45.0221L112.056 45.2826H112.707V45.8034L112.056 45.9336L112.186 46.0638V46.194L111.926 46.7148L112.056 46.8451H112.186L112.577 46.5846H112.707L112.447 46.9753L112.837 47.4961V47.6263C112.837 47.865 112.403 48.082 111.535 48.2773C110.928 48.1037 110.624 47.8867 110.624 47.6263H110.493C110.493 48.2339 110.276 48.668 109.842 48.9284L110.103 49.1888H110.233C110.233 48.9284 110.32 48.7982 110.493 48.7982C111.275 48.885 111.665 49.0586 111.665 49.319L111.145 49.9701H111.014C111.014 49.7096 110.797 49.5794 110.363 49.5794V50.1003C110.624 50.1003 110.797 50.3173 110.884 50.7513L111.535 50.8815H111.665V50.1003C112.013 50.1003 112.186 50.0135 112.186 49.8398V49.5794L111.926 49.1888V49.0586C111.926 48.885 112.143 48.7982 112.577 48.7982C112.577 48.4076 112.794 48.1471 113.228 48.0169L113.358 48.1471V48.2773L112.447 49.319V49.4492L112.967 50.1003V50.4909C112.967 50.6645 112.837 50.7513 112.577 50.7513L112.707 51.4023C112.533 51.4023 112.36 52.0968 112.186 53.4857L112.577 53.6159V53.8763C112.338 54.115 111.991 55.2435 111.535 57.2617C111.253 57.6089 111.036 58.3468 110.884 59.4753C110.711 59.4753 109.842 60.3433 108.28 62.0794C106.674 63.0777 105.068 63.8589 103.462 64.4232C103.115 64.2496 102.638 64.1628 102.03 64.1628H100.988L100.858 64.0326L100.728 64.1628H95.5195L95.3893 64.293L95.2591 64.1628H94.0872L93.957 64.293L93.8268 64.1628H93.5664L93.1758 64.293C91.8737 64.2062 91.2227 63.9891 91.2227 63.6419L91.3529 63.2513L91.0924 59.4753L91.2227 58.5638L91.0924 58.4336V58.3034L91.3529 57.7826L91.2227 57.6523V56.8711L91.3529 56.7409L91.0924 55.8294L91.2227 54.5273L91.0924 54.3971V54.2669L91.4831 53.2253C91.2878 53.2253 91.1576 52.5308 91.0924 51.1419H91.2227L91.0924 51.0117V49.7096L91.2227 48.668L91.0924 47.6263L91.2227 46.3242L91.0924 45.6732L91.4831 45.2826L91.3529 45.1523L91.2227 44.7617H91.0924L91.2227 44.1107C91.2227 43.6766 91.1359 43.4596 90.9622 43.4596L91.0924 43.3294V41.8971L91.2227 41.1159L91.0924 40.9857V40.8555L91.2227 40.3346L91.0924 39.6836L91.2227 39.0326L90.9622 38.7721L91.2227 37.9909L90.9622 36.9492L91.2227 35.9076L90.9622 35.2565L91.0924 34.3451L90.9622 33.694L91.0924 33.043L90.9622 32.2617L91.2227 31.8711L90.9622 30.3086L91.0924 29.918L90.9622 29.7878V29.6576L91.0924 28.8763L90.832 28.6159L90.9622 27.444L90.832 26.0117L91.0924 25.6211L90.9622 24.7096V22.7565H91.0924L93.8268 22.4961ZM113.098 26.1419V26.5326H112.967L112.707 26.2721L112.837 26.1419H113.098ZM100.077 29.0065C100.077 29.7878 99.8598 30.1784 99.4258 30.1784V30.569L99.556 30.4388H99.6862L100.207 30.9596L100.077 31.0898V31.2201L99.2956 30.9596C99.1871 31.3937 99.0569 31.6107 98.9049 31.6107H98.7747L98.6445 30.9596V30.8294C98.6445 30.6558 98.7747 30.569 99.0352 30.569V30.4388C99.0352 30.2652 98.9049 30.1784 98.6445 30.1784L98.5143 30.3086H98.3841L97.8633 30.1784H97.7331V30.6992L98.1237 31.0898C97.8633 31.6107 97.7331 32.5221 97.7331 33.8242V37.0794C97.7331 37.253 97.9501 37.3398 98.3841 37.3398C98.3841 37.5569 98.6445 37.7739 99.1654 37.9909V38.1211L99.0352 38.2513H98.5143L98.3841 38.1211C97.9935 38.2947 97.7765 38.4683 97.7331 38.6419L97.8633 38.7721L98.6445 38.5117C99.2522 38.5985 99.556 38.9023 99.556 39.4232C101.509 39.4232 102.811 38.9891 103.462 38.1211L103.983 36.819L104.634 36.9492C104.634 36.6888 104.895 36.5586 105.415 36.5586V36.4284C105.415 36.2548 105.198 36.168 104.764 36.168L104.634 35.5169L104.764 34.9961L104.374 34.6055L104.504 33.9544L104.374 32.6523L104.634 32.3919L104.243 31.7409V31.4805L104.504 31.2201H104.634V31.6107H104.895V30.569C104.721 30.569 104.634 30.352 104.634 29.918H104.374L103.592 30.569L103.462 30.4388L103.592 29.7878V29.6576L102.421 29.7878L100.598 29.0065H100.077ZM106.066 30.8294V30.9596H106.327V30.569L106.066 30.8294ZM100.337 32.0013L100.598 32.3919L100.337 32.6523H99.9466V32.3919L100.337 32.0013ZM94.2174 36.5586L94.3477 36.6888H94.6081V36.168L94.2174 36.5586ZM109.582 36.5586L109.322 36.9492V37.0794L109.452 37.7305C110.081 37.7305 110.472 37.5135 110.624 37.0794L109.582 36.5586ZM104.374 39.1628L104.504 39.8138H104.764L105.025 39.5534V39.293L104.374 39.1628ZM108.02 40.7253V41.1159H108.15L108.41 40.8555L108.28 40.7253H108.02ZM106.587 41.2461V41.7669H106.717L106.978 41.5065V41.2461H106.587ZM98.6445 41.5065L98.9049 41.7669H99.0352V41.5065H98.6445ZM105.676 41.6367L105.546 42.5482H105.806L106.066 42.2878V41.8971L105.806 41.6367H105.676ZM96.431 41.8971L96.3008 42.6784H95.7799L95.6497 42.1576H95.5195L94.8685 42.2878V42.418L95.2591 42.9388C94.8251 43.1558 94.6081 43.5464 94.6081 44.1107H95.1289C95.3893 43.6766 95.5195 43.2426 95.5195 42.8086L95.6497 42.6784H95.7799C95.8885 43.0256 96.2791 43.1992 96.9518 43.1992V43.3294H96.5612V43.7201L96.6914 43.8503V43.9805H96.431L96.3008 43.8503H96.1706V44.1107L97.4727 44.5013L98.1237 44.3711V44.2409L97.8633 43.9805L98.7747 42.8086C98.5143 42.5482 98.3841 42.2444 98.3841 41.8971H98.1237L97.2122 42.418L97.082 42.2878V42.1576L97.2122 42.0273L97.082 41.8971H96.431ZM100.728 42.0273V42.2878H101.249V42.0273H100.728ZM106.327 42.418V42.5482L106.457 42.6784V42.8086L106.197 43.069V43.3294H106.717L106.587 42.418H106.327ZM101.118 42.9388V43.3294H101.509V43.1992L101.249 42.9388H101.118ZM95.3893 44.5013V44.6315H95.9102V44.8919L95.6497 45.2826L96.0404 45.543H96.3008V44.6315L95.6497 44.2409L95.3893 44.5013ZM109.191 44.5013V44.6315L109.582 45.1523L109.712 45.0221H109.842L109.452 44.5013L109.322 44.6315L109.191 44.5013ZM98.9049 45.6732V45.9336C98.5794 46.0421 98.2756 46.2591 97.9935 46.5846L98.1237 46.7148V46.9753L97.8633 47.2357L97.9935 47.3659V47.4961L97.8633 48.1471H98.3841L97.8633 49.7096V50.3607L98.2539 50.7513L97.9935 51.793L98.5143 52.0534V52.3138C98.1671 52.3138 97.9935 52.4006 97.9935 52.5742L98.2539 52.9648V53.0951L98.1237 53.2253V53.3555H98.2539L97.9935 53.7461L98.1237 53.8763L97.8633 57.2617L97.9935 57.9128H100.598C102.941 57.4136 104.113 56.7192 104.113 55.8294C104.461 55.6558 104.808 54.7878 105.155 53.2253L105.025 53.0951L105.155 52.0534L105.025 50.3607H105.155C104.612 47.2357 103.137 45.6732 100.728 45.6732H98.9049ZM110.754 46.9753V47.2357H111.145L111.405 46.9753V46.8451L110.754 46.9753ZM110.233 53.7461V53.8763L110.493 54.3971H110.884L110.624 53.4857H110.493L110.233 53.7461ZM109.452 53.7461V53.8763L109.842 54.2669L109.973 54.1367V53.7461H109.452ZM109.452 54.918V55.0482H109.842V55.8294L110.103 56.0898L110.363 55.8294V55.6992L110.233 55.569L110.363 55.4388V55.3086C110.363 55.135 110.19 55.0482 109.842 55.0482V54.6576H109.712L109.452 54.918ZM95.6497 70.2826H95.7799C96.431 70.2826 96.7782 70.4128 96.8216 70.6732L96.5612 70.9336C95.7799 70.8251 95.3893 70.6949 95.3893 70.543L95.6497 70.2826ZM114.383 22.5938C114.535 22.5938 115.1 23.8524 116.076 26.3698C115.968 27.5851 115.751 28.1927 115.425 28.1927H115.035V27.9323L114.123 22.724L114.253 22.5938H114.383ZM119.071 22.724H121.285C121.74 22.724 122.131 22.8542 122.456 23.1146L124.019 22.724C124.648 22.724 124.995 23.158 125.061 24.026C124.887 24.2865 124.757 24.8073 124.67 25.5885L125.061 26.2396C125.061 26.6736 124.974 26.8906 124.8 26.8906L124.93 27.0208V27.151L124.8 28.0625L125.191 28.4531L124.93 28.7135V29.1042L125.191 29.8854C125.364 29.8854 125.451 30.1024 125.451 30.5365C125.712 30.5365 125.842 30.6233 125.842 30.7969V30.9271C125.147 30.9271 124.8 31.3611 124.8 32.2292C124.388 32.2943 124.041 32.5113 123.758 32.8802H123.628C123.433 32.8802 123.216 32.316 122.977 31.1875H122.326L121.936 30.9271C121.936 31.3611 121.545 31.5781 120.764 31.5781C120.764 31.3611 120.59 31.2309 120.243 31.1875C119.939 31.1875 119.462 31.4479 118.811 31.9688H118.42L118.29 31.5781L118.42 30.5365L118.29 28.4531L118.42 28.0625H118.29C118.398 27.4549 118.528 27.151 118.68 27.151C118.637 26.6519 118.507 26.2613 118.29 25.9792V23.5052C118.29 22.9844 118.55 22.724 119.071 22.724ZM121.415 23.8958V24.026L121.545 24.1562V24.2865L121.415 24.8073C121.588 25.0026 121.675 25.3064 121.675 25.7188H121.936C122.109 25.7188 122.196 25.5885 122.196 25.3281C122.196 25.046 122.022 24.6988 121.675 24.2865L121.805 24.1562V24.026L121.675 23.8958H121.415ZM122.977 24.8073V24.9375H123.628L123.758 24.5469L123.628 24.4167H123.368L122.977 24.8073ZM122.977 25.4583V25.9792L123.498 26.2396V25.9792C123.368 25.6319 123.238 25.4583 123.107 25.4583H122.977ZM122.456 25.7188V25.9792L122.717 26.2396L122.847 26.1094V25.849L122.456 25.7188ZM124.67 30.6667L124.8 30.7969H124.93L125.191 30.5365V30.4062H124.93L124.67 30.6667ZM123.368 31.4479V31.8385H123.758L123.628 31.4479H123.368ZM122.066 34.9635H122.196V35.224C122.196 35.6797 121.762 36.3307 120.894 37.1771L121.024 37.6979L120.764 38.4792H121.154V38.2188H121.545V38.4792C121.545 38.6745 120.937 38.8481 119.722 39C119.114 38.8698 118.811 38.6962 118.811 38.4792V38.0885C119.071 38.0885 119.201 38.0017 119.201 37.8281V37.5677C118.854 37.5677 118.68 37.4375 118.68 37.1771C118.68 36.5477 119.505 36.0269 121.154 35.6146V35.7448L122.066 34.9635ZM120.113 37.3073V37.9583L120.373 37.6979V37.5677L120.113 37.3073ZM124.93 37.6979C125.56 39.1953 125.95 39.9766 126.102 40.0417L125.842 40.8229C126.189 40.9097 126.363 41.1701 126.363 41.6042C126.102 41.6042 125.972 41.7778 125.972 42.125H125.842C125.668 42.125 125.581 41.9948 125.581 41.7344L125.451 41.6042H125.321L124.54 41.9948L124.019 41.3438H123.889C123.455 41.3438 123.238 41.5608 123.238 41.9948C122.717 41.9948 122.456 42.0816 122.456 42.2552V42.5156L122.847 43.1667L123.758 43.0365H124.279C124.279 43.2969 124.496 43.4271 124.93 43.4271C125.082 44.0347 125.256 44.3385 125.451 44.3385V44.599C125.104 44.599 124.93 44.9462 124.93 45.6406C125.278 45.7491 125.451 46.0095 125.451 46.4219L125.842 46.5521V46.8125L125.451 47.2031C125.451 47.6589 125.625 48.0929 125.972 48.5052V48.6354L125.581 49.1562L125.842 49.4167L126.232 49.2865L126.493 49.9375L126.102 50.1979L125.581 50.0677V50.1979L125.842 50.4583L125.972 50.3281H126.102L126.232 50.4583V50.849H126.102L125.451 50.7188V51.1094C125.69 51.1094 125.95 51.4132 126.232 52.0208L125.451 52.5417V52.6719L125.581 52.8021V52.9323L124.8 53.0625C125.408 53.4748 125.712 53.8655 125.712 54.2344H126.102C126.146 53.8872 126.276 53.7135 126.493 53.7135L126.753 53.974L126.623 54.3646L127.014 54.7552L126.883 54.8854H127.014L126.623 55.5365L126.753 55.6667V55.9271L126.232 56.7083L125.712 56.5781H125.451V56.7083C125.82 56.7083 126.124 56.9253 126.363 57.3594V57.4896H125.972L125.451 57.099L125.191 57.3594V57.6198L125.321 57.75L124.8 59.7031L124.149 59.4427H124.019V59.5729C124.713 59.7465 125.061 60.0069 125.061 60.3542L124.8 60.7448L125.061 61.526V61.9167H125.712V62.0469C125.408 62.0469 125.147 62.1771 124.93 62.4375L125.061 63.0885V64C125.061 64.2821 124.887 64.4123 124.54 64.3906L122.717 64.2604L122.587 64.3906H122.456L121.675 64.1302L121.545 64.2604H121.415L121.285 64.1302L119.982 64.2604H119.331C118.811 64.2604 118.55 64 118.55 63.4792V60.4844L118.42 59.3125L118.68 58.5312L118.55 58.0104L118.811 57.75L121.805 58.7917V58.5312C119.982 58.0538 118.941 57.6632 118.68 57.3594V56.8385L118.941 56.5781L118.68 55.5365C118.68 54.8637 118.941 54.2995 119.462 53.8438L119.852 54.1042L120.243 53.0625H120.373V52.6719H119.982L119.592 52.9323H119.201C119.201 52.4983 118.941 52.2812 118.42 52.2812L118.68 51.6302L118.55 50.4583L118.68 49.4167L118.55 48.8958L118.68 48.375L118.55 48.2448V48.1146L118.68 47.9844V47.8542L118.29 46.6823H118.55L118.42 45.7708V45.5104C118.42 45.3368 118.55 45.25 118.811 45.25C119.071 45.25 119.201 45.467 119.201 45.901H120.243L121.545 45.5104V45.901C121.198 46.3134 121.024 46.7474 121.024 47.2031L121.545 47.4635L122.326 47.0729L122.717 47.4635H122.847V47.0729L122.196 45.901L122.456 45.25H121.675C121.675 44.8377 121.285 44.4905 120.503 44.2083L120.373 43.5573V43.4271C120.633 43.4271 120.764 43.2969 120.764 43.0365H121.024L121.154 43.1667H121.285V42.776L121.024 42.3854V41.9948C121.371 41.9948 121.545 41.8212 121.545 41.474H121.675L121.545 41.3438V41.2135L121.675 40.8229L121.545 40.4323H121.675L122.587 40.6927H123.368V40.4323C122.934 40.3672 122.717 40.237 122.717 40.0417C122.717 39.8464 122.977 39.4991 123.498 39V38.7396C123.932 38.7396 124.149 38.4358 124.149 37.8281H124.279L124.67 37.9583L124.93 37.6979ZM124.8 40.9531V41.2135H124.93L125.191 40.9531H124.8ZM121.154 41.3438V41.8646H120.894V41.6042L121.154 41.3438ZM124.149 41.9948L124.279 42.125V42.5156H123.758L123.368 42.125L124.149 41.9948ZM121.545 43.4271V44.0781C121.719 44.5122 122.022 44.7292 122.456 44.7292L122.847 44.3385C122.717 43.6441 122.413 43.2969 121.936 43.2969L121.545 43.4271ZM123.758 43.4271L123.498 43.8177L123.758 44.0781L124.019 43.8177V43.6875L123.758 43.4271ZM123.889 45.3802V45.6406L124.149 45.901L124.41 45.6406L124.019 45.3802H123.889ZM119.201 47.2031V47.8542H119.331L119.852 47.3333L119.722 47.2031H119.201ZM121.675 51.3698V51.7604H121.936V51.3698H121.675ZM121.805 51.8906C121.87 52.5851 122.001 52.9323 122.196 52.9323L122.326 52.8021V52.6719L122.196 51.8906H121.805ZM130.399 53.974L130.66 54.3646V54.4948L130.008 54.3646L130.399 53.974ZM119.982 54.4948V54.7552L120.764 54.8854V54.625L120.503 54.3646L119.982 54.4948ZM127.274 55.1458H127.535L127.665 55.276L129.488 56.4479V56.7083L128.706 56.3177V56.4479L128.055 56.0573L127.404 56.3177L127.144 55.9271L127.404 55.5365L127.274 55.4062V55.1458ZM122.587 58.9219V59.1823L123.758 59.4427H123.889V59.3125L122.717 58.9219H122.587ZM112.691 61.9167H112.951L113.342 62.3073V62.5677H113.081L112.691 62.1771V61.9167ZM114.253 62.0469L114.383 62.1771H114.514L115.165 62.0469L115.425 62.3073L115.555 62.1771H115.686L116.467 62.4375L117.118 62.3073L117.378 62.8281L117.899 62.5677L118.029 62.6979V62.9583L117.769 63.2188L117.248 63.0885L116.206 63.349C116.163 63.1536 115.816 62.9366 115.165 62.6979L114.774 62.3073L114.644 62.4375H114.514L114.253 62.1771V62.0469ZM126.883 63.0885H127.014L127.274 63.349L127.144 63.4792H127.014L126.883 63.349V63.0885ZM134.615 21.0312H135.005C135.092 22.0729 135.266 22.5938 135.526 22.5938H135.917L137.74 22.724L138.13 22.5938L138.651 23.1146L140.474 22.724H141.255L143.99 22.5938L145.943 22.724L146.724 22.5938L147.375 22.724L147.505 22.5938H147.635C148.417 22.5938 148.807 22.941 148.807 23.6354C148.959 23.6354 149.089 23.9826 149.198 24.6771C149.632 24.7856 149.849 24.9158 149.849 25.0677C149.849 25.1979 149.545 25.3715 148.938 25.5885V25.7188L150.37 26.2396L150.24 26.6302C150.587 26.7821 150.76 26.9557 150.76 27.151H150.891L151.542 27.0208L151.672 27.151L151.411 27.6719L151.542 27.8021H151.672C151.672 27.52 152.193 27.1727 153.234 26.7604L154.276 27.2812L154.797 27.151C154.992 27.52 155.209 27.737 155.448 27.8021L155.969 27.6719L156.099 27.8021C155.925 28.2578 155.708 28.5182 155.448 28.5833L153.365 28.4531L152.323 28.5833V28.7135C152.323 29.1259 152.931 29.3863 154.146 29.4948L154.406 29.2344H154.536V29.3646L154.016 30.1458L154.146 30.276V30.4062L153.885 30.6667V30.7969H154.146V30.9271C154.753 30.9271 155.057 30.5799 155.057 29.8854L154.927 29.2344L155.188 28.974L155.578 29.1042V29.7552C155.752 30.1024 156.012 30.276 156.359 30.276C156.511 29.9288 156.772 29.7552 157.141 29.7552V29.4948L156.359 28.1927C156.598 27.7587 157.032 27.5417 157.661 27.5417C157.661 27.3681 157.922 27.2812 158.443 27.2812L158.964 26.5H159.484L159.615 27.4115H159.875C160.027 27.4115 160.157 27.1944 160.266 26.7604L161.828 26.5C162.609 26.6953 163 26.8689 163 27.0208C163 27.5417 162.523 27.8021 161.568 27.8021L161.047 28.3229L161.698 28.5833V28.7135C161.242 28.7135 160.982 28.9306 160.917 29.3646H160.266C159.484 29.3646 159.094 29.1476 159.094 28.7135H158.833L158.443 28.974L158.052 28.5833H157.922L157.792 29.4948C157.792 29.6684 158.052 29.7986 158.573 29.8854V30.5365L158.703 31.4479L158.182 31.7083L157.792 31.5781L157.401 31.7083L156.62 31.5781L156.359 32.099V32.3594L156.62 32.75V32.8802L154.146 33.1406L153.234 32.4896H153.104C152.149 32.75 151.672 33.1406 151.672 33.6615L151.021 33.7917L150.5 33.5312C150.674 33.0972 150.934 32.8802 151.281 32.8802L151.411 32.2292L151.281 31.4479L152.193 30.7969V30.0156L151.802 29.8854L151.672 30.0156H151.542L150.63 29.4948L149.849 29.7552L148.938 29.4948L148.286 29.7552L147.115 29.625L146.464 29.7552C146.464 29.3429 145.726 29.1259 144.25 29.1042C142.774 29.0825 142.036 29.2995 142.036 29.7552V30.0156H142.167L142.036 31.3177V32.6198L141.906 32.75L142.036 33.1406L142.167 38.0885H142.297L142.167 38.2188V39L142.297 39.3906L142.167 40.0417V41.0833L142.297 41.2135C142.188 42.6024 141.971 43.2969 141.646 43.2969V43.6875C141.993 43.7309 142.167 43.8611 142.167 44.0781V44.4688L141.906 44.7292H141.646L141.255 43.2969H140.995L139.562 43.8177V43.9479C139.888 44.2083 140.192 44.3385 140.474 44.3385V44.4688C140.365 44.6424 139.411 44.9462 137.609 45.3802V45.25L136.568 45.901H136.047V45.7708L136.438 45.25C136.003 45.1415 135.786 45.0113 135.786 44.8594V44.2083L135.917 43.5573C136.307 43.5573 136.698 43.6875 137.089 43.9479L137.87 43.8177L138.26 44.2083H138.521L138.781 43.9479C138.174 43.3403 137.523 43.0365 136.828 43.0365L136.047 43.2969L135.786 42.9062V41.3438L135.917 39.3906L135.786 38.7396L135.917 37.1771H135.786L135.917 36.7865L135.786 36.1354L135.917 35.4844L135.786 34.8333L135.917 34.1823L135.786 32.6198C135.721 31.7517 135.982 31.3177 136.568 31.3177V30.7969C136.22 30.7969 135.917 30.276 135.656 29.2344L135.786 28.8438L135.656 28.7135H135.266L134.875 28.974C134.094 28.974 133.703 28.7135 133.703 28.1927L134.224 27.8021L133.964 27.5417V27.4115C133.964 26.7387 134.224 26.3481 134.745 26.2396L134.615 26.1094V25.849C134.615 25.6753 134.788 25.5885 135.135 25.5885L135.526 24.4167H135.396L135.266 24.5469L134.875 24.4167V24.1562L135.005 24.026V23.8958L134.875 23.7656C133.681 24.8941 132.944 25.4583 132.661 25.4583V25.3281L132.401 25.0677H132.271C132.271 25.4149 132.097 25.5885 131.75 25.5885L131.359 26.1094L131.75 26.5H132.401C132.444 26.1528 132.575 25.9792 132.792 25.9792H133.182L133.312 26.6302L132.792 27.151L132.922 27.8021H133.052C133.226 27.8021 133.312 27.6285 133.312 27.2812C133.464 27.2812 133.595 27.5851 133.703 28.1927H133.443L133.312 28.0625H133.182L132.792 28.974C132.271 28.8872 132.01 28.6701 132.01 28.3229H131.88L132.01 27.6719V27.5417C131.49 27.5417 131.229 27.3681 131.229 27.0208V26.7604H130.839L130.448 27.151L131.229 27.5417C131.229 27.8021 131.099 27.9323 130.839 27.9323V28.0625C131.186 28.0625 131.359 28.3229 131.359 28.8438C130.99 29.0174 130.296 29.1042 129.276 29.1042L129.016 28.3229C129.189 28.3229 129.276 28.0625 129.276 27.5417L130.188 27.2812V26.3698L130.708 25.849L131.099 25.9792C131.099 25.5668 131.446 25.0894 132.141 24.5469L131.88 24.2865C131.359 24.4384 131.099 24.829 131.099 25.4583H130.969L130.708 25.1979V24.9375L130.969 24.5469L130.839 24.4167L130.969 24.2865V23.8958C129.753 23.7656 129.146 23.5486 129.146 23.2448C129.146 23.0061 129.45 22.8325 130.057 22.724L130.839 22.9844L130.708 23.375L130.839 23.5052H131.099L132.271 22.9844L132.661 23.1146V23.5052H132.01V23.6354L132.271 23.8958H133.312C133.312 23.5486 133.399 23.375 133.573 23.375C133.573 23.6354 133.703 23.7656 133.964 23.7656L134.875 23.2448L134.615 21.0312ZM136.568 22.9844V23.2448H136.828L138 23.5052L138.13 23.375V23.2448C138.13 23.0712 137.87 22.9844 137.349 22.9844V22.8542L136.568 22.9844ZM135.656 26.8906C135.743 27.2378 136.003 27.4115 136.438 27.4115H136.568C136.568 27.2378 136.698 27.151 136.958 27.151L137.089 27.0208V26.8906L136.958 26.7604L136.438 26.8906L135.656 26.7604V26.8906ZM136.698 27.4115V27.5417L136.958 27.8021V27.4115H136.698ZM140.083 28.3229L139.953 29.1042H140.214L140.344 28.3229H140.083ZM136.958 29.625C137.175 29.9939 137.479 30.2543 137.87 30.4062C138.477 30.1458 138.781 29.7552 138.781 29.2344C138.521 29.2344 138.391 29.1042 138.391 28.8438L138.521 28.4531H138.13C137.566 28.7135 137.175 29.1042 136.958 29.625ZM150.24 28.5833L150.5 28.8438H150.76V28.7135L150.63 28.5833V28.4531L150.24 28.5833ZM157.271 28.974V29.2344H157.661V28.974H157.271ZM136.438 29.4948V29.625L136.698 29.8854V29.4948H136.438ZM149.198 30.276V30.6667H149.068L148.807 30.4062L148.938 30.276H149.198ZM152.714 31.1875V31.4479C153.321 31.5564 153.625 31.7734 153.625 32.099H154.016V31.7083C153.755 31.7083 153.625 31.5781 153.625 31.3177L153.104 31.0573L152.714 31.1875ZM137.219 31.3177V31.7083H137.609V31.3177H137.219ZM155.318 31.9688L155.188 32.099V32.2292C155.274 32.4896 155.535 32.6198 155.969 32.6198V32.3594C155.969 32.1641 155.752 32.0339 155.318 31.9688ZM160.396 33.1406H162.219L162.74 33.401L163.13 33.2708L164.432 33.5312C164.28 34.0521 163.977 34.3125 163.521 34.3125L162.74 34.4427V34.3125L163 33.9219H162.609L162.349 34.1823V34.3125C161.958 34.0521 161.438 33.8785 160.786 33.7917L160.656 33.6615L160.135 33.7917L159.745 33.6615V33.2708L160.396 33.1406ZM152.453 33.2708H153.495V33.5312H154.276V33.6615C154.276 34.1823 153.712 34.4427 152.583 34.4427L152.323 34.1823L152.583 33.7917L152.453 33.6615V33.2708ZM137.74 37.6979L137.87 38.0885H138.13V37.6979H137.74ZM138.651 41.7344L138.781 42.125H139.042L139.302 41.8646V41.6042H138.911L138.781 41.7344H138.651ZM141.255 44.7292H141.516C140.756 45.3151 140.365 45.8359 140.344 46.2917H140.865C140.865 45.684 141.125 45.3802 141.646 45.3802H142.036L142.167 45.7708L142.036 46.4219L142.167 46.9427C142.036 47.3767 141.733 47.5938 141.255 47.5938H140.344L138.781 47.2031V47.8542L136.958 48.1146V48.375L138.781 48.6354V48.5052L139.302 48.7656C139.302 48.2231 140.214 47.8325 142.036 47.5938L142.167 48.375L141.776 48.5052V48.8958C142.015 48.8958 142.145 49.026 142.167 49.2865L142.297 52.0208L142.167 53.0625L142.297 55.9271V57.4896L142.036 57.8802L142.167 58.7917L141.776 59.1823C142.123 59.2257 142.297 59.3559 142.297 59.5729V60.3542L142.167 61.3958L142.297 62.4375L142.167 63.0885L142.297 63.2188V63.349L142.167 64.1302H141.385L140.865 64.2604L140.734 64.1302H140.604L138.781 64.2604L137.74 64.1302V64.2604L137.609 64.1302L136.698 64.2604H136.307C136.134 64.2604 136.047 63.8264 136.047 62.9583H135.917L136.047 62.8281V61.3958L135.917 60.6146C135.917 59.5729 136.22 59.0521 136.828 59.0521L137.349 59.1823L137.479 59.0521V58.7917H137.349L136.177 58.9219L135.917 58.5312V53.0625L136.047 51.8906L135.917 50.9792V50.849L136.177 49.9375L135.917 49.6771V49.5469L136.177 48.7656H136.047L136.177 48.6354V48.375L135.917 47.9844V46.9427L136.828 46.8125H136.958V46.9427L136.438 47.5938V47.724H137.74V47.5938L137.609 46.9427L138 46.8125L138.391 46.9427L138.521 46.8125V46.6823L138.391 45.901V45.7708H138.781L141.255 44.7292ZM138.13 45.901H138.26V46.1615L137.87 46.2917V46.1615L138.13 45.901ZM138.781 46.4219V46.6823L138.911 46.8125V46.9427L139.562 46.8125C139.476 46.5521 139.215 46.4219 138.781 46.4219ZM140.083 46.4219L139.953 46.8125H140.344V46.6823L140.083 46.4219ZM137.089 56.8385L136.698 56.7083V56.9688L137.479 57.099L137.87 56.9688V56.5781L137.089 56.8385ZM138.13 58.2708L138 58.401V58.6615L138.13 58.7917C138.087 59.1389 137.957 59.3125 137.74 59.3125V59.5729L138 60.0938H138.391L138.13 59.0521H138.911L138.13 58.2708ZM139.693 58.7917L139.432 59.1823L139.562 59.3125V59.4427L139.432 59.9635H139.693L140.083 59.4427C140.865 59.4427 141.255 59.3125 141.255 59.0521V58.9219H140.995L139.693 58.7917Z" fill="url(#paint1_linear_3_91)"/>
</g>
<defs>
<linearGradient id="paint0_linear_3_91" x1="15" y1="13" x2="73" y2="71" gradientUnits="userSpaceOnUse">
<stop stop-color="#00CDD0"/>
<stop offset="0.5" stop-color="#5656D2"/>
<stop offset="1" stop-color="#9400D4"/>
</linearGradient>
<linearGradient id="paint1_linear_3_91" x1="88" y1="5" x2="163.908" y2="69.0782" gradientUnits="userSpaceOnUse">
<stop stop-color="#00CDD0"/>
<stop offset="0.5" stop-color="#5656D2"/>
<stop offset="1" stop-color="#9400D4"/>
</linearGradient>
<clipPath id="clip0_3_91">
<rect width="173" height="81" fill="white"/>
</clipPath>
</defs>
</svg>
