<svg width="333" height="162" viewBox="0 0 333 162" fill="none" xmlns="http://www.w3.org/2000/svg">
<g clip-path="url(#clip0_56_244)">
<rect x="30" y="26" width="116" height="116" rx="20" fill="white"/>
<path d="M47.6536 43.9922H59.3724C66.3168 43.9922 72.1328 46.0755 76.8203 50.2422C78.2526 50.2422 79.4679 51.0234 80.4661 52.5859V52.8464C79.0773 53.1936 78.3828 53.6276 78.3828 54.1484C79.3377 54.1484 80.2925 54.4089 81.2474 54.9297L82.0286 54.6693V54.9297L81.7682 56.4922L83.0703 56.7526L82.0286 60.138V61.1797L82.2891 61.4401L82.0286 61.7005V61.9609L82.2891 64.5651L81.5078 64.8255L81.2474 64.5651H80.987L80.2057 64.8255V66.1276C82.1155 66.6918 83.0703 67.7335 83.0703 69.2526C84.112 69.2526 84.6328 69.4262 84.6328 69.7734V70.0339L83.0703 70.2943V71.3359L83.3307 71.0755H84.112V71.3359C84.112 71.7266 83.678 71.987 82.8099 72.1172L83.5911 73.4193L83.0703 74.4609L83.3307 75.2422C83.0269 76.9783 82.1589 77.8464 80.7266 77.8464C80.7266 78.7144 80.1189 79.1484 78.9036 79.1484V79.4089L79.1641 80.7109H78.9036L77.3411 80.1901L77.0807 80.4505V80.9714L77.862 81.2318C77.6016 82.2734 76.9071 82.7943 75.7786 82.7943V82.5339L76.0391 81.7526L75.7786 81.4922H75.2578L74.737 82.013L74.9974 83.0547L74.737 83.3151V83.5755L75.2578 84.3568L76.5599 83.5755L77.3411 83.8359L76.8203 85.9193C77.9054 86.2231 78.947 87.0043 79.9453 88.263H82.8099V88.5234C82.2891 88.5234 82.0286 88.697 82.0286 89.0443L82.5495 89.5651L83.3307 89.0443L84.112 89.5651H85.4141V90.6068L84.112 90.8672L84.3724 91.1276V91.388L83.8516 92.4297L84.112 92.6901H84.3724L85.1536 92.1693H85.4141L84.8932 92.9505L85.6745 93.9922V94.2526C85.6745 94.73 84.8064 95.1641 83.0703 95.5547C81.855 95.2075 81.2474 94.7734 81.2474 94.2526H80.987C80.987 95.4679 80.553 96.3359 79.6849 96.8568L80.2057 97.3776H80.4661C80.4661 96.8568 80.6398 96.5964 80.987 96.5964C82.5495 96.77 83.3307 97.1172 83.3307 97.638L82.2891 98.9401H82.0286C82.0286 98.4193 81.5946 98.1589 80.7266 98.1589V99.2005C81.2474 99.2005 81.5946 99.6345 81.7682 100.503L83.0703 100.763H83.3307V99.2005C84.0252 99.2005 84.3724 99.0269 84.3724 98.6797V98.1589L83.8516 97.3776V97.1172C83.8516 96.77 84.2856 96.5964 85.1536 96.5964C85.1536 95.8151 85.5877 95.2943 86.4557 95.0339L86.7161 95.2943V95.5547L84.8932 97.638V97.8984L85.9349 99.2005V99.9818C85.9349 100.329 85.6745 100.503 85.1536 100.503L85.4141 101.805C85.0668 101.805 84.7196 103.194 84.3724 105.971L85.1536 106.232V106.753C84.6762 107.23 83.9818 109.487 83.0703 113.523C82.5061 114.218 82.072 115.694 81.7682 117.951C81.421 117.951 79.6849 119.687 76.5599 123.159C73.3481 125.155 70.1363 126.718 66.9245 127.846C66.23 127.499 65.2752 127.326 64.0599 127.326H61.9766L61.7161 127.065L61.4557 127.326H51.0391L50.7786 127.586L50.5182 127.326H48.1745L47.9141 127.586L47.6536 127.326H47.1328L46.3516 127.586C43.7474 127.412 42.4453 126.978 42.4453 126.284L42.7057 125.503L42.1849 117.951L42.4453 116.128L42.1849 115.867V115.607L42.7057 114.565L42.4453 114.305V112.742L42.7057 112.482L42.1849 110.659L42.4453 108.055L42.1849 107.794V107.534L42.9661 105.451C42.5755 105.451 42.3151 104.062 42.1849 101.284H42.4453L42.1849 101.023V98.4193L42.4453 96.3359L42.1849 94.2526L42.4453 91.6484L42.1849 90.3464L42.9661 89.5651L42.7057 89.3047L42.4453 88.5234H42.1849L42.4453 87.2214C42.4453 86.3533 42.2717 85.9193 41.9245 85.9193L42.1849 85.6589V82.7943L42.4453 81.2318L42.1849 80.9714V80.7109L42.4453 79.6693L42.1849 78.3672L42.4453 77.0651L41.9245 76.5443L42.4453 74.9818L41.9245 72.8984L42.4453 70.8151L41.9245 69.513L42.1849 67.6901L41.9245 66.388L42.1849 65.0859L41.9245 63.5234L42.4453 62.7422L41.9245 59.6172L42.1849 58.8359L41.9245 58.5755V58.3151L42.1849 56.7526L41.6641 56.2318L41.9245 53.888L41.6641 51.0234L42.1849 50.2422L41.9245 48.4193V44.513H42.1849L47.6536 43.9922ZM86.1953 51.2839V52.0651H85.9349L85.4141 51.5443L85.6745 51.2839H86.1953ZM60.1536 57.013C60.1536 58.5755 59.7196 59.3568 58.8516 59.3568V60.138L59.112 59.8776H59.3724L60.4141 60.9193L60.1536 61.1797V61.4401L58.5911 60.9193C58.3741 61.7873 58.1137 62.2214 57.8099 62.2214H57.5495L57.2891 60.9193V60.6589C57.2891 60.3116 57.5495 60.138 58.0703 60.138V59.8776C58.0703 59.5304 57.8099 59.3568 57.2891 59.3568L57.0286 59.6172H56.7682L55.7266 59.3568H55.4661V60.3984L56.2474 61.1797C55.7266 62.2214 55.4661 64.0443 55.4661 66.6484V73.1589C55.4661 73.5061 55.9002 73.6797 56.7682 73.6797C56.7682 74.1137 57.2891 74.5477 58.3307 74.9818V75.2422L58.0703 75.5026H57.0286L56.7682 75.2422C55.987 75.5894 55.553 75.9366 55.4661 76.2839L55.7266 76.5443L57.2891 76.0234C58.5043 76.197 59.112 76.8047 59.112 77.8464C63.0182 77.8464 65.6224 76.9783 66.9245 75.2422L67.9661 72.638L69.2682 72.8984C69.2682 72.3776 69.7891 72.1172 70.8307 72.1172V71.8568C70.8307 71.5095 70.3967 71.3359 69.5286 71.3359L69.2682 70.0339L69.5286 68.9922L68.7474 68.2109L69.0078 66.9089L68.7474 64.3047L69.2682 63.7839L68.487 62.4818V61.9609L69.0078 61.4401H69.2682V62.2214H69.7891V60.138C69.4418 60.138 69.2682 59.704 69.2682 58.8359H68.7474L67.1849 60.138L66.9245 59.8776L67.1849 58.5755V58.3151L64.8411 58.5755L61.1953 57.013H60.1536ZM72.1328 60.6589V60.9193H72.6536V60.138L72.1328 60.6589ZM60.6745 63.0026L61.1953 63.7839L60.6745 64.3047H59.8932V63.7839L60.6745 63.0026ZM48.4349 72.1172L48.6953 72.3776H49.2161V71.3359L48.4349 72.1172ZM79.1641 72.1172L78.6432 72.8984V73.1589L78.9036 74.4609C80.1623 74.4609 80.9436 74.0269 81.2474 73.1589L79.1641 72.1172ZM68.7474 77.3255L69.0078 78.6276H69.5286L70.0495 78.1068V77.5859L68.7474 77.3255ZM76.0391 80.4505V81.2318H76.2995L76.8203 80.7109L76.5599 80.4505H76.0391ZM73.1745 81.4922V82.5339H73.4349L73.9557 82.013V81.4922H73.1745ZM57.2891 82.013L57.8099 82.5339H58.0703V82.013H57.2891ZM71.3516 82.2734L71.0911 84.0964H71.612L72.1328 83.5755V82.7943L71.612 82.2734H71.3516ZM52.862 82.7943L52.6016 84.3568H51.5599L51.2995 83.3151H51.0391L49.737 83.5755V83.8359L50.5182 84.8776C49.6502 85.3116 49.2161 86.0929 49.2161 87.2214H50.2578C50.7786 86.3533 51.0391 85.4852 51.0391 84.6172L51.2995 84.3568H51.5599C51.7769 85.0512 52.5582 85.3984 53.9036 85.3984V85.6589H53.1224V86.4401L53.3828 86.7005V86.9609H52.862L52.6016 86.7005H52.3411V87.2214L54.9453 88.0026L56.2474 87.7422V87.4818L55.7266 86.9609L57.5495 84.6172C57.0286 84.0964 56.7682 83.4887 56.7682 82.7943H56.2474L54.4245 83.8359L54.1641 83.5755V83.3151L54.4245 83.0547L54.1641 82.7943H52.862ZM61.4557 83.0547V83.5755H62.4974V83.0547H61.4557ZM72.6536 83.8359V84.0964L72.9141 84.3568V84.6172L72.3932 85.138V85.6589H73.4349L73.1745 83.8359H72.6536ZM62.237 84.8776V85.6589H63.0182V85.3984L62.4974 84.8776H62.237ZM50.7786 88.0026V88.263H51.8203V88.7839L51.2995 89.5651L52.0807 90.0859H52.6016V88.263L51.2995 87.4818L50.7786 88.0026ZM78.3828 88.0026V88.263L79.1641 89.3047L79.4245 89.0443H79.6849L78.9036 88.0026L78.6432 88.263L78.3828 88.0026ZM57.8099 90.3464V90.8672C57.1589 91.0842 56.5512 91.5182 55.987 92.1693L56.2474 92.4297V92.9505L55.7266 93.4714L55.987 93.7318V93.9922L55.7266 95.2943H56.7682L55.7266 98.4193V99.7214L56.5078 100.503L55.987 102.586L57.0286 103.107V103.628C56.3342 103.628 55.987 103.801 55.987 104.148L56.5078 104.93V105.19L56.2474 105.451V105.711H56.5078L55.987 106.492L56.2474 106.753L55.7266 113.523L55.987 114.826H61.1953C65.8828 113.827 68.2266 112.438 68.2266 110.659C68.921 110.312 69.6155 108.576 70.3099 105.451L70.0495 105.19L70.3099 103.107L70.0495 99.7214H70.3099C69.2248 93.4714 66.2734 90.3464 61.4557 90.3464H57.8099ZM81.5078 92.9505V93.4714H82.2891L82.8099 92.9505V92.6901L81.5078 92.9505ZM80.4661 106.492V106.753L80.987 107.794H81.7682L81.2474 105.971H80.987L80.4661 106.492ZM78.9036 106.492V106.753L79.6849 107.534L79.9453 107.273V106.492H78.9036ZM78.9036 108.836V109.096H79.6849V110.659L80.2057 111.18L80.7266 110.659V110.398L80.4661 110.138L80.7266 109.878V109.617C80.7266 109.27 80.3793 109.096 79.6849 109.096V108.315H79.4245L78.9036 108.836ZM51.2995 139.565H51.5599C52.862 139.565 53.5564 139.826 53.6432 140.346L53.1224 140.867C51.5599 140.65 50.7786 140.39 50.7786 140.086L51.2995 139.565ZM98.7604 42.1693C99.7153 42.8637 101.191 43.2109 103.188 43.2109L103.969 42.9505C105.878 43.3845 106.833 43.9054 106.833 44.513L106.573 45.2943L106.833 48.1589V48.9401C106.833 51.0234 106.573 52.0651 106.052 52.0651L106.573 55.4505V58.8359C106.573 60.572 106.399 61.4401 106.052 61.4401L106.312 62.7422V64.5651L106.573 64.8255V65.0859L106.052 65.6068V66.6484L106.312 67.9505L105.792 68.4714L107.094 69.7734H107.354C107.701 69.7734 107.875 69.513 107.875 68.9922L108.135 68.7318H108.396L109.177 69.513L108.917 69.7734V70.0339L108.656 69.7734H108.135L107.615 70.2943V70.8151H109.438V71.0755C109.307 71.6832 108.786 72.204 107.875 72.638H107.615L107.094 72.1172H107.354C106.964 71.0755 106.616 70.5547 106.312 70.5547L105.531 71.0755L105.792 72.3776V72.8984L105.531 75.2422L106.052 76.5443C105.618 77.0651 104.924 77.3255 103.969 77.3255V77.5859L104.75 79.9297L104.49 81.4922C105.054 81.4922 105.488 82.7075 105.792 85.138H106.052C106.052 84.0964 106.226 83.5755 106.573 83.5755L108.396 83.8359V83.5755L107.094 79.6693C109.047 79.6693 110.262 81.2318 110.74 84.3568H111C112.736 84.3568 113.604 83.6623 113.604 82.2734C113.604 81.0582 114.299 80.1033 115.688 79.4089L116.208 78.3672L119.594 78.1068L123.5 78.888L124.542 78.6276C125.583 78.8012 126.104 79.0616 126.104 79.4089C126.104 80.2335 125.583 80.928 124.542 81.4922L123.76 80.9714H123.5L122.979 81.4922V82.2734L123.5 83.0547V83.5755C122.979 83.5755 122.719 84.1832 122.719 85.3984C121.677 85.3984 120.983 86.5269 120.635 88.7839C119.42 90.4766 118.639 91.3446 118.292 91.388L117.25 90.6068L116.729 91.1276H116.469C114.559 91.1276 113.604 89.5651 113.604 86.4401C113.604 85.2248 113.431 84.6172 113.083 84.6172H111.781C110.566 85.0078 109.958 86.2231 109.958 88.263L110.219 90.6068C109.481 91.3012 108.786 91.6484 108.135 91.6484C106.92 91.6484 106.312 90.8672 106.312 89.3047L106.052 87.7422H105.792L105.271 90.8672L105.531 91.6484L105.01 92.6901L105.531 95.8151L105.271 96.0755V96.3359L105.531 97.3776L105.271 100.242C105.401 101.284 105.575 101.805 105.792 101.805L105.531 102.065V102.326L105.792 103.628C105.661 104.669 105.488 105.19 105.271 105.19L105.792 109.096L105.531 111.961L105.792 112.221H105.531L106.052 114.044L105.792 117.43H106.052L104.75 120.555C106.833 122.855 107.875 124.504 107.875 125.503C107.875 126.371 106.66 126.805 104.229 126.805H96.1562L95.375 126.284H94.8542L94.5938 126.544H94.3333L93.8125 125.763V124.982H94.0729L95.375 125.242V124.201L94.5938 121.076L95.375 120.294C95.375 119.426 94.8542 118.819 93.8125 118.471V118.211C94.6806 118.211 95.1146 118.037 95.1146 117.69V117.169C94.4635 117.169 93.9427 116.041 93.5521 113.784L93.8125 113.523V113.263L93.5521 111.961L93.8125 109.617L93.5521 107.273L93.8125 107.013V106.753L93.5521 105.711V105.19H94.3333V104.669L93.2917 104.409L93.5521 103.107L93.2917 98.1589L93.8125 95.8151L93.2917 93.7318L94.3333 92.1693V91.9089L93.5521 90.6068L94.0729 84.3568C93.7257 84.3568 93.4653 83.8359 93.2917 82.7943L94.0729 79.1484L93.2917 78.888V78.3672C93.2917 78.02 93.5521 77.8464 94.0729 77.8464L94.3333 77.5859V77.0651C94.3333 76.6311 93.6389 76.2839 92.25 76.0234V75.5026C92.7274 75.5026 93.0747 73.5929 93.2917 69.7734L93.0312 68.7318L93.2917 67.9505C92.5972 67.6901 92.25 67.4297 92.25 67.1693L93.0312 65.8672V65.0859C93.0312 64.6519 92.684 64.3915 91.9896 64.3047V64.0443C92.684 64.0443 93.0312 63.8707 93.0312 63.5234V60.138L92.7708 59.8776L93.0312 59.6172V53.6276L92.5104 51.5443L93.0312 50.763L92.7708 49.9818L93.0312 46.8568L92.7708 45.8151L93.0312 44.7734V44.513L92.7708 44.2526V43.9922L93.5521 43.4714H96.1562C96.8941 43.4714 97.7622 43.0373 98.7604 42.1693ZM124.802 42.9505L125.844 43.4714L126.625 43.2109L127.406 44.2526L127.927 43.2109L129.49 43.7318L130.792 43.4714C132.007 43.4714 132.615 43.9054 132.615 44.7734H133.135L133.917 44.2526H134.177L134.438 45.5547C133.613 45.5547 132.745 45.9019 131.833 46.5964L132.354 47.638L134.177 47.3776H134.698L136 47.8984V48.4193C135.913 48.9401 135.219 49.2005 133.917 49.2005C133.917 48.6797 133.743 48.4193 133.396 48.4193V48.6797L133.917 49.4609V50.2422H132.354V50.5026L132.615 51.5443L132.094 52.8464C132.094 53.3238 132.701 53.7578 133.917 54.1484V54.9297H133.656L132.875 54.1484C132.571 54.1484 131.877 54.9297 130.792 56.4922L129.229 56.7526L125.844 56.2318L123.24 56.4922L122.979 56.2318L121.677 56.4922H119.333L117.771 56.7526L116.469 56.4922L115.948 57.013L115.167 56.4922H114.646C113.908 57.013 113.04 57.2734 112.042 57.2734V57.013L110.219 57.7943V57.5339L109.958 56.4922L110.219 55.4505C109.872 55.0165 109.438 52.1519 108.917 46.8568L108.656 46.5964L108.917 45.5547V45.2943L108.656 45.0339C108.873 43.9922 109.134 43.4714 109.438 43.4714H116.208L118.292 43.7318L120.375 43.4714H120.896L124.021 43.7318L124.802 42.9505ZM131.573 44.513V45.0339H132.354L131.833 44.513H131.573ZM150.062 44.2526H150.583V45.0339L150.062 45.5547H149.802L150.062 44.2526ZM111.781 46.0755V47.1172H112.562V46.5964L112.042 46.0755H111.781ZM145.896 47.8984H146.156L147.719 48.6797L147.979 47.8984H148.24L149.021 48.6797V48.9401C149.021 49.6345 147.545 49.9818 144.594 49.9818L144.333 49.7214V49.4609L145.896 47.8984ZM157.875 47.8984H158.396C158.396 48.9401 157.354 49.7214 155.271 50.2422C154.576 49.7214 153.448 49.4609 151.885 49.4609L151.625 49.2005V48.4193H152.406V48.9401C156.052 48.5929 157.875 48.2457 157.875 47.8984ZM150.583 48.4193V49.9818H150.062L149.802 48.9401L150.583 48.4193ZM94.8542 48.9401L94.3333 51.0234L94.5938 51.2839H95.6354L96.1562 49.7214H95.8958L94.8542 48.9401ZM141.469 48.9401L141.99 49.4609V49.7214H140.948V49.4609L141.469 48.9401ZM101.104 52.5859V53.6276C101.538 53.6276 102.059 53.1936 102.667 52.3255L102.406 51.5443H102.146L101.104 52.5859ZM96.4167 51.8047V52.8464H97.1979V52.3255L96.6771 51.8047H96.4167ZM140.948 51.8047L142.771 52.0651H143.292L143.552 52.8464L141.729 54.1484H141.208V53.6276H140.948L141.208 53.3672V53.1068L140.948 51.8047ZM136.781 53.3672L138.083 54.6693L137.302 54.9297L136 54.6693L136.781 53.3672ZM98.2396 53.888V54.1484L98.7604 54.6693H99.0208V53.888H98.2396ZM100.844 61.1797L100.583 62.7422H100.844L102.146 62.4818L103.188 62.7422V62.4818C103.188 61.9609 102.406 61.5269 100.844 61.1797ZM96.9375 62.7422H97.1979C97.1979 62.395 97.6319 62.2214 98.5 62.2214L98.7604 61.9609V61.4401H97.7188C97.4149 61.4401 97.1545 61.8741 96.9375 62.7422ZM96.1562 64.0443V64.8255H96.9375V64.5651L96.4167 64.0443H96.1562ZM101.365 64.8255L101.625 65.0859H102.146V64.3047H101.885L101.365 64.8255ZM110.219 65.8672H111C111 66.388 111.174 66.6484 111.521 66.6484L113.083 66.1276V66.388L112.042 67.1693L111.781 67.4297V67.6901C111.13 67.5165 110.609 66.9089 110.219 65.8672ZM113.083 66.9089H113.604L115.688 67.1693V67.6901H113.344L113.083 66.9089ZM99.2812 67.9505V68.2109C99.4549 69.5998 99.7153 70.2943 100.062 70.2943H100.583L101.625 69.2526C100.583 68.3845 99.8021 67.9505 99.2812 67.9505ZM102.406 68.4714V68.7318L102.927 69.2526L103.188 68.9922V68.4714H102.406ZM113.083 68.2109H113.344L113.865 68.7318H113.083V68.2109ZM94.0729 72.1172V72.638C94.0729 73.5061 94.4201 74.0269 95.1146 74.2005L95.6354 73.6797H96.6771C97.0243 73.6797 97.1979 73.9401 97.1979 74.4609L97.7188 73.9401V73.1589C96.8507 73.0286 96.4167 72.7682 96.4167 72.3776V71.8568L96.9375 71.0755V70.5547H95.8958L94.0729 72.1172ZM100.323 72.1172L100.062 72.3776V72.638C100.193 73.1589 100.887 73.4193 102.146 73.4193L102.927 75.5026C103.969 75.3724 104.49 75.1988 104.49 74.9818C104.49 73.5495 103.882 72.5946 102.667 72.1172H102.146L101.104 72.3776L100.323 72.1172ZM99.2812 72.8984L99.0208 73.1589V73.4193L99.2812 74.2005H100.062V73.6797L99.2812 72.8984ZM100.323 74.7214V75.5026L101.104 74.7214V74.4609L100.323 74.7214ZM99.5417 77.8464L99.2812 78.1068V78.6276L100.062 79.4089H100.583V78.888L99.5417 77.8464ZM96.6771 78.888V79.1484L98.2396 80.7109L96.6771 80.9714V81.2318C97.3715 81.9696 97.7188 82.6641 97.7188 83.3151V84.6172L98.7604 85.138H100.062L101.104 83.8359L100.323 81.2318C99.9757 81.2318 99.8021 80.8845 99.8021 80.1901L99.5417 79.9297H99.2812L98.2396 80.1901C98.2396 79.322 97.7188 78.888 96.6771 78.888ZM121.156 79.1484V79.4089L121.417 81.2318C122.632 80.5807 123.24 79.9731 123.24 79.4089L122.979 79.1484H121.156ZM94.3333 81.4922L94.8542 84.6172H95.375L95.8958 84.0964V83.8359L95.1146 82.5339L95.375 81.4922L95.1146 81.2318H94.8542L94.5938 81.4922H94.3333ZM125.062 82.5339C125.8 82.5339 126.234 83.5755 126.365 85.6589L125.844 86.1797V86.7005C125.844 87.0477 126.191 87.2214 126.885 87.2214L126.365 88.5234H125.583C124.715 88.1762 124.281 87.5686 124.281 86.7005V86.4401L125.323 86.1797V85.9193L124.542 85.138L124.281 85.3984H124.021V84.8776C124.932 84.8776 125.453 84.6172 125.583 84.0964C125.583 83.7491 125.323 83.5755 124.802 83.5755L124.542 83.3151V83.0547L125.062 82.5339ZM127.927 84.6172H128.188V84.8776L127.667 85.6589V85.9193C127.667 86.2665 127.927 86.4401 128.448 86.4401L128.708 86.7005V86.9609H128.448C127.753 86.9609 127.406 86.5269 127.406 85.6589H127.146L127.927 84.6172ZM102.927 90.8672V91.388H103.708V90.8672H102.927ZM101.625 93.4714V93.9922C102.146 93.9922 102.406 94.4262 102.406 95.2943H102.927V93.9922L101.625 93.4714ZM109.958 113.784H114.646L115.688 114.565L117.25 113.784L118.292 114.044L119.333 113.784L120.115 114.044L121.156 113.784H121.677V114.044L124.802 113.784H128.708C128.839 114.999 129.012 115.607 129.229 115.607L128.969 116.909V118.732L128.708 118.992L128.969 119.253V120.294L128.448 120.815C128.101 120.815 127.927 120.381 127.927 119.513H127.146V120.555L120.896 118.471V118.992C122.979 119.556 124.021 120.251 124.021 121.076L122.458 121.596C122.806 122.117 123.153 123.766 123.5 126.544L123.24 126.805L122.458 126.544L121.156 126.805L120.115 126.544L118.552 126.805L117.51 126.544L114.385 126.805C113.344 126.891 112.302 126.457 111.26 125.503C111.043 126.284 110.696 126.718 110.219 126.805L109.698 126.284L110.74 123.419L109.698 116.648V115.086L109.958 113.784ZM114.646 115.607V116.128H114.385C114.559 118.211 114.906 119.253 115.427 119.253L115.948 118.732L115.688 117.43L116.208 116.909L114.906 115.607H114.646ZM124.281 120.555C127.406 120.555 128.969 121.336 128.969 122.898V123.159L128.708 124.721L128.969 125.503C128.708 126.197 128.448 126.544 128.188 126.544H126.104L125.844 125.242L126.104 123.419C125.627 123.419 125.019 122.551 124.281 120.815V120.555ZM131.052 137.221L132.094 137.482V138.003L131.573 138.523C130.705 138.306 130.271 138.046 130.271 137.742V137.482L131.052 137.221ZM126.625 137.742L127.667 138.003V138.263C127.667 138.61 126.451 138.957 124.021 139.305V139.044C124.021 138.654 124.889 138.22 126.625 137.742ZM136.521 138.003L137.042 138.523L136.781 138.784V139.044L136 138.784V138.523L136.521 138.003ZM134.958 138.263H135.74L136 139.565H135.219L134.958 138.263ZM138.083 138.523H138.865L138.344 139.044H138.083V138.523Z" fill="url(#paint0_linear_56_244)"/>
<path d="M187.654 43.9922H199.372C206.317 43.9922 212.133 46.0755 216.82 50.2422C218.253 50.2422 219.468 51.0234 220.466 52.5859V52.8464C219.077 53.1936 218.383 53.6276 218.383 54.1484C219.338 54.1484 220.293 54.4089 221.247 54.9297L222.029 54.6693V54.9297L221.768 56.4922L223.07 56.7526L222.029 60.138V61.1797L222.289 61.4401L222.029 61.7005V61.9609L222.289 64.5651L221.508 64.8255L221.247 64.5651H220.987L220.206 64.8255V66.1276C222.115 66.6918 223.07 67.7335 223.07 69.2526C224.112 69.2526 224.633 69.4262 224.633 69.7734V70.0339L223.07 70.2943V71.3359L223.331 71.0755H224.112V71.3359C224.112 71.7266 223.678 71.987 222.81 72.1172L223.591 73.4193L223.07 74.4609L223.331 75.2422C223.027 76.9783 222.159 77.8464 220.727 77.8464C220.727 78.7144 220.119 79.1484 218.904 79.1484V79.4089L219.164 80.7109H218.904L217.341 80.1901L217.081 80.4505V80.9714L217.862 81.2318C217.602 82.2734 216.907 82.7943 215.779 82.7943V82.5339L216.039 81.7526L215.779 81.4922H215.258L214.737 82.013L214.997 83.0547L214.737 83.3151V83.5755L215.258 84.3568L216.56 83.5755L217.341 83.8359L216.82 85.9193C217.905 86.2231 218.947 87.0043 219.945 88.263H222.81V88.5234C222.289 88.5234 222.029 88.697 222.029 89.0443L222.549 89.5651L223.331 89.0443L224.112 89.5651H225.414V90.6068L224.112 90.8672L224.372 91.1276V91.388L223.852 92.4297L224.112 92.6901H224.372L225.154 92.1693H225.414L224.893 92.9505L225.674 93.9922V94.2526C225.674 94.73 224.806 95.1641 223.07 95.5547C221.855 95.2075 221.247 94.7734 221.247 94.2526H220.987C220.987 95.4679 220.553 96.3359 219.685 96.8568L220.206 97.3776H220.466C220.466 96.8568 220.64 96.5964 220.987 96.5964C222.549 96.77 223.331 97.1172 223.331 97.638L222.289 98.9401H222.029C222.029 98.4193 221.595 98.1589 220.727 98.1589V99.2005C221.247 99.2005 221.595 99.6345 221.768 100.503L223.07 100.763H223.331V99.2005C224.025 99.2005 224.372 99.0269 224.372 98.6797V98.1589L223.852 97.3776V97.1172C223.852 96.77 224.286 96.5964 225.154 96.5964C225.154 95.8151 225.588 95.2943 226.456 95.0339L226.716 95.2943V95.5547L224.893 97.638V97.8984L225.935 99.2005V99.9818C225.935 100.329 225.674 100.503 225.154 100.503L225.414 101.805C225.067 101.805 224.72 103.194 224.372 105.971L225.154 106.232V106.753C224.676 107.23 223.982 109.487 223.07 113.523C222.506 114.218 222.072 115.694 221.768 117.951C221.421 117.951 219.685 119.687 216.56 123.159C213.348 125.155 210.136 126.718 206.924 127.846C206.23 127.499 205.275 127.326 204.06 127.326H201.977L201.716 127.065L201.456 127.326H191.039L190.779 127.586L190.518 127.326H188.174L187.914 127.586L187.654 127.326H187.133L186.352 127.586C183.747 127.412 182.445 126.978 182.445 126.284L182.706 125.503L182.185 117.951L182.445 116.128L182.185 115.867V115.607L182.706 114.565L182.445 114.305V112.742L182.706 112.482L182.185 110.659L182.445 108.055L182.185 107.794V107.534L182.966 105.451C182.576 105.451 182.315 104.062 182.185 101.284H182.445L182.185 101.023V98.4193L182.445 96.3359L182.185 94.2526L182.445 91.6484L182.185 90.3464L182.966 89.5651L182.706 89.3047L182.445 88.5234H182.185L182.445 87.2214C182.445 86.3533 182.272 85.9193 181.924 85.9193L182.185 85.6589V82.7943L182.445 81.2318L182.185 80.9714V80.7109L182.445 79.6693L182.185 78.3672L182.445 77.0651L181.924 76.5443L182.445 74.9818L181.924 72.8984L182.445 70.8151L181.924 69.513L182.185 67.6901L181.924 66.388L182.185 65.0859L181.924 63.5234L182.445 62.7422L181.924 59.6172L182.185 58.8359L181.924 58.5755V58.3151L182.185 56.7526L181.664 56.2318L181.924 53.888L181.664 51.0234L182.185 50.2422L181.924 48.4193V44.513H182.185L187.654 43.9922ZM226.195 51.2839V52.0651H225.935L225.414 51.5443L225.674 51.2839H226.195ZM200.154 57.013C200.154 58.5755 199.72 59.3568 198.852 59.3568V60.138L199.112 59.8776H199.372L200.414 60.9193L200.154 61.1797V61.4401L198.591 60.9193C198.374 61.7873 198.114 62.2214 197.81 62.2214H197.549L197.289 60.9193V60.6589C197.289 60.3116 197.549 60.138 198.07 60.138V59.8776C198.07 59.5304 197.81 59.3568 197.289 59.3568L197.029 59.6172H196.768L195.727 59.3568H195.466V60.3984L196.247 61.1797C195.727 62.2214 195.466 64.0443 195.466 66.6484V73.1589C195.466 73.5061 195.9 73.6797 196.768 73.6797C196.768 74.1137 197.289 74.5477 198.331 74.9818V75.2422L198.07 75.5026H197.029L196.768 75.2422C195.987 75.5894 195.553 75.9366 195.466 76.2839L195.727 76.5443L197.289 76.0234C198.504 76.197 199.112 76.8047 199.112 77.8464C203.018 77.8464 205.622 76.9783 206.924 75.2422L207.966 72.638L209.268 72.8984C209.268 72.3776 209.789 72.1172 210.831 72.1172V71.8568C210.831 71.5095 210.397 71.3359 209.529 71.3359L209.268 70.0339L209.529 68.9922L208.747 68.2109L209.008 66.9089L208.747 64.3047L209.268 63.7839L208.487 62.4818V61.9609L209.008 61.4401H209.268V62.2214H209.789V60.138C209.442 60.138 209.268 59.704 209.268 58.8359H208.747L207.185 60.138L206.924 59.8776L207.185 58.5755V58.3151L204.841 58.5755L201.195 57.013H200.154ZM212.133 60.6589V60.9193H212.654V60.138L212.133 60.6589ZM200.674 63.0026L201.195 63.7839L200.674 64.3047H199.893V63.7839L200.674 63.0026ZM188.435 72.1172L188.695 72.3776H189.216V71.3359L188.435 72.1172ZM219.164 72.1172L218.643 72.8984V73.1589L218.904 74.4609C220.162 74.4609 220.944 74.0269 221.247 73.1589L219.164 72.1172ZM208.747 77.3255L209.008 78.6276H209.529L210.049 78.1068V77.5859L208.747 77.3255ZM216.039 80.4505V81.2318H216.299L216.82 80.7109L216.56 80.4505H216.039ZM213.174 81.4922V82.5339H213.435L213.956 82.013V81.4922H213.174ZM197.289 82.013L197.81 82.5339H198.07V82.013H197.289ZM211.352 82.2734L211.091 84.0964H211.612L212.133 83.5755V82.7943L211.612 82.2734H211.352ZM192.862 82.7943L192.602 84.3568H191.56L191.299 83.3151H191.039L189.737 83.5755V83.8359L190.518 84.8776C189.65 85.3116 189.216 86.0929 189.216 87.2214H190.258C190.779 86.3533 191.039 85.4852 191.039 84.6172L191.299 84.3568H191.56C191.777 85.0512 192.558 85.3984 193.904 85.3984V85.6589H193.122V86.4401L193.383 86.7005V86.9609H192.862L192.602 86.7005H192.341V87.2214L194.945 88.0026L196.247 87.7422V87.4818L195.727 86.9609L197.549 84.6172C197.029 84.0964 196.768 83.4887 196.768 82.7943H196.247L194.424 83.8359L194.164 83.5755V83.3151L194.424 83.0547L194.164 82.7943H192.862ZM201.456 83.0547V83.5755H202.497V83.0547H201.456ZM212.654 83.8359V84.0964L212.914 84.3568V84.6172L212.393 85.138V85.6589H213.435L213.174 83.8359H212.654ZM202.237 84.8776V85.6589H203.018V85.3984L202.497 84.8776H202.237ZM190.779 88.0026V88.263H191.82V88.7839L191.299 89.5651L192.081 90.0859H192.602V88.263L191.299 87.4818L190.779 88.0026ZM218.383 88.0026V88.263L219.164 89.3047L219.424 89.0443H219.685L218.904 88.0026L218.643 88.263L218.383 88.0026ZM197.81 90.3464V90.8672C197.159 91.0842 196.551 91.5182 195.987 92.1693L196.247 92.4297V92.9505L195.727 93.4714L195.987 93.7318V93.9922L195.727 95.2943H196.768L195.727 98.4193V99.7214L196.508 100.503L195.987 102.586L197.029 103.107V103.628C196.334 103.628 195.987 103.801 195.987 104.148L196.508 104.93V105.19L196.247 105.451V105.711H196.508L195.987 106.492L196.247 106.753L195.727 113.523L195.987 114.826H201.195C205.883 113.827 208.227 112.438 208.227 110.659C208.921 110.312 209.615 108.576 210.31 105.451L210.049 105.19L210.31 103.107L210.049 99.7214H210.31C209.225 93.4714 206.273 90.3464 201.456 90.3464H197.81ZM221.508 92.9505V93.4714H222.289L222.81 92.9505V92.6901L221.508 92.9505ZM220.466 106.492V106.753L220.987 107.794H221.768L221.247 105.971H220.987L220.466 106.492ZM218.904 106.492V106.753L219.685 107.534L219.945 107.273V106.492H218.904ZM218.904 108.836V109.096H219.685V110.659L220.206 111.18L220.727 110.659V110.398L220.466 110.138L220.727 109.878V109.617C220.727 109.27 220.379 109.096 219.685 109.096V108.315H219.424L218.904 108.836ZM191.299 139.565H191.56C192.862 139.565 193.556 139.826 193.643 140.346L193.122 140.867C191.56 140.65 190.779 140.39 190.779 140.086L191.299 139.565ZM228.767 44.1875C229.071 44.1875 230.199 46.7049 232.152 51.7396C231.935 54.1701 231.501 55.3854 230.85 55.3854H230.069V54.8646L228.246 44.4479L228.507 44.1875H228.767ZM238.142 44.4479H242.569C243.48 44.4479 244.262 44.7083 244.913 45.2292L248.038 44.4479C249.296 44.4479 249.991 45.316 250.121 47.0521C249.774 47.5729 249.513 48.6146 249.34 50.1771L250.121 51.4792C250.121 52.3472 249.947 52.7812 249.6 52.7812L249.861 53.0417V53.3021L249.6 55.125L250.382 55.9062L249.861 56.4271V57.2083L250.382 58.7708C250.729 58.7708 250.902 59.2049 250.902 60.0729C251.423 60.0729 251.684 60.2465 251.684 60.5938V60.8542C250.295 60.8542 249.6 61.7222 249.6 63.4583C248.776 63.5885 248.081 64.0226 247.517 64.7604H247.257C246.866 64.7604 246.432 63.6319 245.954 61.375H244.652L243.871 60.8542C243.871 61.7222 243.09 62.1562 241.527 62.1562C241.527 61.7222 241.18 61.4618 240.486 61.375C239.878 61.375 238.923 61.8958 237.621 62.9375H236.84L236.579 62.1562L236.84 60.0729L236.579 55.9062L236.84 55.125H236.579C236.796 53.9097 237.057 53.3021 237.361 53.3021C237.274 52.3038 237.013 51.5226 236.579 50.9583V46.0104C236.579 44.9687 237.1 44.4479 238.142 44.4479ZM242.829 46.7917V47.0521L243.09 47.3125V47.5729L242.829 48.6146C243.177 49.0052 243.35 49.6128 243.35 50.4375H243.871C244.218 50.4375 244.392 50.1771 244.392 49.6562C244.392 49.092 244.045 48.3976 243.35 47.5729L243.611 47.3125V47.0521L243.35 46.7917H242.829ZM245.954 48.6146V48.875H247.257L247.517 48.0938L247.257 47.8333H246.736L245.954 48.6146ZM245.954 49.9167V50.9583L246.996 51.4792V50.9583C246.736 50.2639 246.475 49.9167 246.215 49.9167H245.954ZM244.913 50.4375V50.9583L245.434 51.4792L245.694 51.2188V50.6979L244.913 50.4375ZM249.34 60.3333L249.6 60.5938H249.861L250.382 60.0729V59.8125H249.861L249.34 60.3333ZM246.736 61.8958V62.6771H247.517L247.257 61.8958H246.736ZM244.132 68.9271H244.392V69.4479C244.392 70.3594 243.524 71.6615 241.788 73.3542L242.048 74.3958L241.527 75.9583H242.309V75.4375H243.09V75.9583C243.09 76.349 241.875 76.6962 239.444 77C238.229 76.7396 237.621 76.3924 237.621 75.9583V75.1771C238.142 75.1771 238.402 75.0035 238.402 74.6562V74.1354C237.708 74.1354 237.361 73.875 237.361 73.3542C237.361 72.0955 239.01 71.0538 242.309 70.2292V70.4896L244.132 68.9271ZM240.225 73.6146V74.9167L240.746 74.3958V74.1354L240.225 73.6146ZM249.861 74.3958C251.119 77.3906 251.901 78.9531 252.204 79.0833L251.684 80.6458C252.378 80.8194 252.725 81.3403 252.725 82.2083C252.204 82.2083 251.944 82.5556 251.944 83.25H251.684C251.336 83.25 251.163 82.9896 251.163 82.4688L250.902 82.2083H250.642L249.079 82.9896L248.038 81.6875H247.777C246.909 81.6875 246.475 82.1215 246.475 82.9896C245.434 82.9896 244.913 83.1632 244.913 83.5104V84.0312L245.694 85.3333L247.517 85.0729H248.559C248.559 85.5937 248.993 85.8542 249.861 85.8542C250.164 87.0694 250.512 87.6771 250.902 87.6771V88.1979C250.208 88.1979 249.861 88.8924 249.861 90.2812C250.555 90.4983 250.902 91.0191 250.902 91.8438L251.684 92.1042V92.625L250.902 93.4062C250.902 94.3177 251.25 95.1858 251.944 96.0104V96.2708L251.163 97.3125L251.684 97.8333L252.465 97.5729L252.986 98.875L252.204 99.3958L251.163 99.1354V99.3958L251.684 99.9167L251.944 99.6562H252.204L252.465 99.9167V100.698H252.204L250.902 100.438V101.219C251.38 101.219 251.901 101.826 252.465 103.042L250.902 104.083V104.344L251.163 104.604V104.865L249.6 105.125C250.816 105.95 251.423 106.731 251.423 107.469H252.204C252.291 106.774 252.552 106.427 252.986 106.427L253.507 106.948L253.246 107.729L254.027 108.51L253.767 108.771H254.027L253.246 110.073L253.507 110.333V110.854L252.465 112.417L251.423 112.156H250.902V112.417C251.64 112.417 252.248 112.851 252.725 113.719V113.979H251.944L250.902 113.198L250.382 113.719V114.24L250.642 114.5L249.6 118.406L248.298 117.885H248.038V118.146C249.427 118.493 250.121 119.014 250.121 119.708L249.6 120.49L250.121 122.052V122.833H251.423V123.094C250.816 123.094 250.295 123.354 249.861 123.875L250.121 125.177V127C250.121 127.564 249.774 127.825 249.079 127.781L245.434 127.521L245.173 127.781H244.913L243.35 127.26L243.09 127.521H242.829L242.569 127.26L239.965 127.521H238.663C237.621 127.521 237.1 127 237.1 125.958V119.969L236.84 117.625L237.361 116.062L237.1 115.021L237.621 114.5L243.611 116.583V116.062C239.965 115.108 237.882 114.326 237.361 113.719V112.677L237.882 112.156L237.361 110.073C237.361 108.727 237.882 107.599 238.923 106.688L239.704 107.208L240.486 105.125H240.746V104.344H239.965L239.184 104.865H238.402C238.402 103.997 237.882 103.562 236.84 103.562L237.361 102.26L237.1 99.9167L237.361 97.8333L237.1 96.7917L237.361 95.75L237.1 95.4896V95.2292L237.361 94.9688V94.7083L236.579 92.3646H237.1L236.84 90.5417V90.0208C236.84 89.6736 237.1 89.5 237.621 89.5C238.142 89.5 238.402 89.934 238.402 90.8021H240.486L243.09 90.0208V90.8021C242.395 91.6267 242.048 92.4948 242.048 93.4062L243.09 93.9271L244.652 93.1458L245.434 93.9271H245.694V93.1458L244.392 90.8021L244.913 89.5H243.35C243.35 88.6753 242.569 87.9809 241.007 87.4167L240.746 86.1146V85.8542C241.267 85.8542 241.527 85.5937 241.527 85.0729H242.048L242.309 85.3333H242.569V84.5521L242.048 83.7708V82.9896C242.743 82.9896 243.09 82.6424 243.09 81.9479H243.35L243.09 81.6875V81.4271L243.35 80.6458L243.09 79.8646H243.35L245.173 80.3854H246.736V79.8646C245.868 79.7344 245.434 79.474 245.434 79.0833C245.434 78.6927 245.954 77.9983 246.996 77V76.4792C247.864 76.4792 248.298 75.8715 248.298 74.6562H248.559L249.34 74.9167L249.861 74.3958ZM249.6 80.9062V81.4271H249.861L250.382 80.9062H249.6ZM242.309 81.6875V82.7292H241.788V82.2083L242.309 81.6875ZM248.298 82.9896L248.559 83.25V84.0312H247.517L246.736 83.25L248.298 82.9896ZM243.09 85.8542V87.1562C243.437 88.0243 244.045 88.4583 244.913 88.4583L245.694 87.6771C245.434 86.2882 244.826 85.5938 243.871 85.5938L243.09 85.8542ZM247.517 85.8542L246.996 86.6354L247.517 87.1562L248.038 86.6354V86.375L247.517 85.8542ZM247.777 89.7604V90.2812L248.298 90.8021L248.819 90.2812L248.038 89.7604H247.777ZM238.402 93.4062V94.7083H238.663L239.704 93.6667L239.444 93.4062H238.402ZM243.35 101.74V102.521H243.871V101.74H243.35ZM243.611 102.781C243.741 104.17 244.001 104.865 244.392 104.865L244.652 104.604V104.344L244.392 102.781H243.611ZM260.798 106.948L261.319 107.729V107.99L260.017 107.729L260.798 106.948ZM239.965 107.99V108.51L241.527 108.771V108.25L241.007 107.729L239.965 107.99ZM254.548 109.292H255.069L255.329 109.552L258.975 111.896V112.417L257.413 111.635V111.896L256.111 111.115L254.809 111.635L254.288 110.854L254.809 110.073L254.548 109.812V109.292ZM245.173 116.844V117.365L247.517 117.885H247.777V117.625L245.434 116.844H245.173ZM225.382 122.833H225.902L226.684 123.615V124.135H226.163L225.382 123.354V122.833ZM228.507 123.094L228.767 123.354H229.027L230.329 123.094L230.85 123.615L231.111 123.354H231.371L232.934 123.875L234.236 123.615L234.757 124.656L235.798 124.135L236.059 124.396V124.917L235.538 125.438L234.496 125.177L232.413 125.698C232.326 125.307 231.632 124.873 230.329 124.396L229.548 123.615L229.288 123.875H229.027L228.507 123.354V123.094ZM253.767 125.177H254.027L254.548 125.698L254.288 125.958H254.027L253.767 125.698V125.177ZM269.229 41.0625H270.01C270.184 43.1458 270.531 44.1875 271.052 44.1875H271.833L275.479 44.4479L276.26 44.1875L277.302 45.2292L280.948 44.4479H282.51L287.979 44.1875L291.885 44.4479L293.448 44.1875L294.75 44.4479L295.01 44.1875H295.271C296.833 44.1875 297.615 44.8819 297.615 46.2708C297.918 46.2708 298.179 46.9653 298.396 48.3542C299.264 48.5712 299.698 48.8316 299.698 49.1354C299.698 49.3958 299.09 49.7431 297.875 50.1771V50.4375L300.74 51.4792L300.479 52.2604C301.174 52.5642 301.521 52.9115 301.521 53.3021H301.781L303.083 53.0417L303.344 53.3021L302.823 54.3438L303.083 54.6042H303.344C303.344 54.0399 304.385 53.3455 306.469 52.5208L308.552 53.5625L309.594 53.3021C309.984 54.0399 310.418 54.474 310.896 54.6042L311.938 54.3438L312.198 54.6042C311.851 55.5156 311.417 56.0365 310.896 56.1667L306.729 55.9062L304.646 56.1667V56.4271C304.646 57.2517 305.861 57.7726 308.292 57.9896L308.812 57.4688H309.073V57.7292L308.031 59.2917L308.292 59.5521V59.8125L307.771 60.3333V60.5938H308.292V60.8542C309.507 60.8542 310.115 60.1597 310.115 58.7708L309.854 57.4688L310.375 56.9479L311.156 57.2083V58.5104C311.503 59.2049 312.024 59.5521 312.719 59.5521C313.023 58.8576 313.543 58.5104 314.281 58.5104V57.9896L312.719 55.3854C313.196 54.5174 314.064 54.0833 315.323 54.0833C315.323 53.7361 315.844 53.5625 316.885 53.5625L317.927 52H318.969L319.229 53.8229H319.75C320.054 53.8229 320.314 53.3889 320.531 52.5208L323.656 52C325.219 52.3906 326 52.7378 326 53.0417C326 54.0833 325.045 54.6042 323.135 54.6042L322.094 55.6458L323.396 56.1667V56.4271C322.484 56.4271 321.964 56.8611 321.833 57.7292H320.531C318.969 57.7292 318.188 57.2951 318.188 56.4271H317.667L316.885 56.9479L316.104 56.1667H315.844L315.583 57.9896C315.583 58.3368 316.104 58.5972 317.146 58.7708V60.0729L317.406 61.8958L316.365 62.4167L315.583 62.1562L314.802 62.4167L313.24 62.1562L312.719 63.1979V63.7188L313.24 64.5V64.7604L308.292 65.2812L306.469 63.9792H306.208C304.299 64.5 303.344 65.2812 303.344 66.3229L302.042 66.5833L301 66.0625C301.347 65.1944 301.868 64.7604 302.562 64.7604L302.823 63.4583L302.562 61.8958L304.385 60.5938V59.0312L303.604 58.7708L303.344 59.0312H303.083L301.26 57.9896L299.698 58.5104L297.875 57.9896L296.573 58.5104L294.229 58.25L292.927 58.5104C292.927 57.6858 291.451 57.2517 288.5 57.2083C285.549 57.1649 284.073 57.599 284.073 58.5104V59.0312H284.333L284.073 61.6354V64.2396L283.812 64.5L284.073 65.2812L284.333 75.1771H284.594L284.333 75.4375V77L284.594 77.7812L284.333 79.0833V81.1667L284.594 81.4271C284.377 84.2049 283.943 85.5938 283.292 85.5938V86.375C283.986 86.4618 284.333 86.7222 284.333 87.1562V87.9375L283.812 88.4583H283.292L282.51 85.5938H281.99L279.125 86.6354V86.8958C279.776 87.4167 280.384 87.6771 280.948 87.6771V87.9375C280.731 88.2847 278.821 88.8924 275.219 89.7604V89.5L273.135 90.8021H272.094V90.5417L272.875 89.5C272.007 89.283 271.573 89.0226 271.573 88.7188V87.4167L271.833 86.1146C272.615 86.1146 273.396 86.375 274.177 86.8958L275.74 86.6354L276.521 87.4167H277.042L277.562 86.8958C276.347 85.6806 275.045 85.0729 273.656 85.0729L272.094 85.5938L271.573 84.8125V81.6875L271.833 77.7812L271.573 76.4792L271.833 73.3542H271.573L271.833 72.5729L271.573 71.2708L271.833 69.9688L271.573 68.6667L271.833 67.3646L271.573 64.2396C271.443 62.5035 271.964 61.6354 273.135 61.6354V60.5938C272.441 60.5938 271.833 59.5521 271.312 57.4688L271.573 56.6875L271.312 56.4271H270.531L269.75 56.9479C268.188 56.9479 267.406 56.4271 267.406 55.3854L268.448 54.6042L267.927 54.0833V53.8229C267.927 52.4774 268.448 51.6962 269.49 51.4792L269.229 51.2188V50.6979C269.229 50.3507 269.576 50.1771 270.271 50.1771L271.052 47.8333H270.792L270.531 48.0938L269.75 47.8333V47.3125L270.01 47.0521V46.7917L269.75 46.5312C267.363 48.7882 265.887 49.9167 265.323 49.9167V49.6562L264.802 49.1354H264.542C264.542 49.8299 264.194 50.1771 263.5 50.1771L262.719 51.2188L263.5 52H264.802C264.889 51.3056 265.149 50.9583 265.583 50.9583H266.365L266.625 52.2604L265.583 53.3021L265.844 54.6042H266.104C266.451 54.6042 266.625 54.2569 266.625 53.5625C266.929 53.5625 267.189 54.1701 267.406 55.3854H266.885L266.625 55.125H266.365L265.583 56.9479C264.542 56.7743 264.021 56.3403 264.021 55.6458H263.76L264.021 54.3438V54.0833C262.979 54.0833 262.458 53.7361 262.458 53.0417V52.5208H261.677L260.896 53.3021L262.458 54.0833C262.458 54.6042 262.198 54.8646 261.677 54.8646V55.125C262.372 55.125 262.719 55.6458 262.719 56.6875C261.981 57.0347 260.592 57.2083 258.552 57.2083L258.031 55.6458C258.378 55.6458 258.552 55.125 258.552 54.0833L260.375 53.5625V51.7396L261.417 50.6979L262.198 50.9583C262.198 50.1337 262.892 49.1788 264.281 48.0938L263.76 47.5729C262.719 47.8767 262.198 48.658 262.198 49.9167H261.938L261.417 49.3958V48.875L261.938 48.0938L261.677 47.8333L261.938 47.5729V46.7917C259.507 46.5312 258.292 46.0972 258.292 45.4896C258.292 45.0122 258.899 44.6649 260.115 44.4479L261.677 44.9688L261.417 45.75L261.677 46.0104H262.198L264.542 44.9688L265.323 45.2292V46.0104H264.021V46.2708L264.542 46.7917H266.625C266.625 46.0972 266.799 45.75 267.146 45.75C267.146 46.2708 267.406 46.5312 267.927 46.5312L269.75 45.4896L269.229 41.0625ZM273.135 44.9688V45.4896H273.656L276 46.0104L276.26 45.75V45.4896C276.26 45.1424 275.74 44.9688 274.698 44.9688V44.7083L273.135 44.9688ZM271.312 52.7812C271.486 53.4757 272.007 53.8229 272.875 53.8229H273.135C273.135 53.4757 273.396 53.3021 273.917 53.3021L274.177 53.0417V52.7812L273.917 52.5208L272.875 52.7812L271.312 52.5208V52.7812ZM273.396 53.8229V54.0833L273.917 54.6042V53.8229H273.396ZM280.167 55.6458L279.906 57.2083H280.427L280.688 55.6458H280.167ZM273.917 58.25C274.351 58.9878 274.958 59.5087 275.74 59.8125C276.955 59.2917 277.562 58.5104 277.562 57.4688C277.042 57.4688 276.781 57.2083 276.781 56.6875L277.042 55.9062H276.26C275.132 56.4271 274.351 57.2083 273.917 58.25ZM300.479 56.1667L301 56.6875H301.521V56.4271L301.26 56.1667V55.9062L300.479 56.1667ZM314.542 56.9479V57.4688H315.323V56.9479H314.542ZM272.875 57.9896V58.25L273.396 58.7708V57.9896H272.875ZM298.396 59.5521V60.3333H298.135L297.615 59.8125L297.875 59.5521H298.396ZM305.427 61.375V61.8958C306.642 62.1128 307.25 62.5469 307.25 63.1979H308.031V62.4167C307.51 62.4167 307.25 62.1562 307.25 61.6354L306.208 61.1146L305.427 61.375ZM274.438 61.6354V62.4167H275.219V61.6354H274.438ZM310.635 62.9375L310.375 63.1979V63.4583C310.549 63.9792 311.069 64.2396 311.938 64.2396V63.7188C311.938 63.3281 311.503 63.0677 310.635 62.9375ZM320.792 65.2812H324.438L325.479 65.8021L326.26 65.5417L328.865 66.0625C328.561 67.1042 327.953 67.625 327.042 67.625L325.479 67.8854V67.625L326 66.8438H325.219L324.698 67.3646V67.625C323.917 67.1042 322.875 66.7569 321.573 66.5833L321.312 66.3229L320.271 66.5833L319.49 66.3229V65.5417L320.792 65.2812ZM304.906 65.5417H306.99V66.0625H308.552V66.3229C308.552 67.3646 307.424 67.8854 305.167 67.8854L304.646 67.3646L305.167 66.5833L304.906 66.3229V65.5417ZM275.479 74.3958L275.74 75.1771H276.26V74.3958H275.479ZM277.302 82.4688L277.562 83.25H278.083L278.604 82.7292V82.2083H277.823L277.562 82.4688H277.302ZM282.51 88.4583H283.031C281.512 89.6302 280.731 90.6719 280.688 91.5833H281.729C281.729 90.3681 282.25 89.7604 283.292 89.7604H284.073L284.333 90.5417L284.073 91.8438L284.333 92.8854C284.073 93.7535 283.465 94.1875 282.51 94.1875H280.688L277.562 93.4062V94.7083L273.917 95.2292V95.75L277.562 96.2708V96.0104L278.604 96.5312C278.604 95.4462 280.427 94.6649 284.073 94.1875L284.333 95.75L283.552 96.0104V96.7917C284.03 96.7917 284.29 97.0521 284.333 97.5729L284.594 103.042L284.333 105.125L284.594 110.854V113.979L284.073 114.76L284.333 116.583L283.552 117.365C284.247 117.451 284.594 117.712 284.594 118.146V119.708L284.333 121.792L284.594 123.875L284.333 125.177L284.594 125.438V125.698L284.333 127.26H282.771L281.729 127.521L281.469 127.26H281.208L277.562 127.521L275.479 127.26V127.521L275.219 127.26L273.396 127.521H272.615C272.267 127.521 272.094 126.653 272.094 124.917H271.833L272.094 124.656V121.792L271.833 120.229C271.833 118.146 272.441 117.104 273.656 117.104L274.698 117.365L274.958 117.104V116.583H274.698L272.354 116.844L271.833 116.062V105.125L272.094 102.781L271.833 100.958V100.698L272.354 98.875L271.833 98.3542V98.0938L272.354 96.5312H272.094L272.354 96.2708V95.75L271.833 94.9688V92.8854L273.656 92.625H273.917V92.8854L272.875 94.1875V94.4479H275.479V94.1875L275.219 92.8854L276 92.625L276.781 92.8854L277.042 92.625V92.3646L276.781 90.8021V90.5417H277.562L282.51 88.4583ZM276.26 90.8021H276.521V91.3229L275.74 91.5833V91.3229L276.26 90.8021ZM277.562 91.8438V92.3646L277.823 92.625V92.8854L279.125 92.625C278.951 92.1042 278.431 91.8438 277.562 91.8438ZM280.167 91.8438L279.906 92.625H280.688V92.3646L280.167 91.8438ZM274.177 112.677L273.396 112.417V112.938L274.958 113.198L275.74 112.938V112.156L274.177 112.677ZM276.26 115.542L276 115.802V116.323L276.26 116.583C276.174 117.278 275.913 117.625 275.479 117.625V118.146L276 119.188H276.781L276.26 117.104H277.823L276.26 115.542ZM279.385 116.583L278.865 117.365L279.125 117.625V117.885L278.865 118.927H279.385L280.167 117.885C281.729 117.885 282.51 117.625 282.51 117.104V116.844H281.99L279.385 116.583Z" fill="white"/>
</g>
<defs>
<linearGradient id="paint0_linear_56_244" x1="36" y1="10" x2="176.136" y2="101.592" gradientUnits="userSpaceOnUse">
<stop stop-color="#3C113D"/>
<stop offset="0.390625" stop-color="#401A44"/>
<stop offset="0.9999" stop-color="#7A1269"/>
<stop offset="1" stop-color="#D9D9D9" stop-opacity="0"/>
<stop offset="1" stop-color="#D9D9D9" stop-opacity="0"/>
</linearGradient>
<clipPath id="clip0_56_244">
<rect width="346" height="162" fill="white"/>
</clipPath>
</defs>
</svg>
