<svg width="50" height="50" viewBox="0 0 50 50" fill="none" xmlns="http://www.w3.org/2000/svg">
<path d="M45.153 38.6528C43.8137 37.4588 42.6411 36.09 41.6669 34.5833C40.6033 32.5035 39.9658 30.2323 39.7919 27.9028V21.0417C39.8011 17.3828 38.4739 13.8465 36.0596 11.0972C33.6453 8.34787 30.3102 6.5748 26.6808 6.1111V4.31944C26.6808 3.82768 26.4854 3.35607 26.1377 3.00834C25.79 2.66062 25.3184 2.46527 24.8266 2.46527C24.3348 2.46527 23.8632 2.66062 23.5155 3.00834C23.1678 3.35607 22.9724 3.82768 22.9724 4.31944V6.13888C19.3756 6.636 16.0807 8.41979 13.6982 11.1599C11.3156 13.8999 10.0068 17.4106 10.0141 21.0417V27.9028C9.84015 30.2323 9.20269 32.5035 8.13911 34.5833C7.182 36.0866 6.02827 37.4552 4.70855 38.6528C4.5604 38.7829 4.44166 38.9431 4.36024 39.1227C4.27882 39.3023 4.23658 39.4972 4.23633 39.6944V41.5833C4.23633 41.9517 4.38266 42.305 4.64312 42.5654C4.90359 42.8259 5.25686 42.9722 5.62522 42.9722H44.2363C44.6047 42.9722 44.958 42.8259 45.2184 42.5654C45.4789 42.305 45.6252 41.9517 45.6252 41.5833V39.6944C45.625 39.4972 45.5827 39.3023 45.5013 39.1227C45.4199 38.9431 45.3011 38.7829 45.153 38.6528ZM7.12522 40.1944C8.41745 38.9461 9.55521 37.5472 10.5141 36.0278C11.8538 33.5159 12.6355 30.7445 12.8058 27.9028V21.0417C12.7507 19.4139 13.0237 17.7918 13.6086 16.2718C14.1935 14.7517 15.0783 13.365 16.2103 12.194C17.3423 11.0231 18.6983 10.0919 20.1977 9.45593C21.6971 8.81997 23.3091 8.49223 24.9377 8.49223C26.5664 8.49223 28.1784 8.81997 29.6777 9.45593C31.1771 10.0919 32.5332 11.0231 33.6652 12.194C34.7971 13.365 35.6819 14.7517 36.2668 16.2718C36.8517 17.7918 37.1247 19.4139 37.0697 21.0417V27.9028C37.2399 30.7445 38.0216 33.5159 39.3613 36.0278C40.3202 37.5472 41.458 38.9461 42.7502 40.1944H7.12522Z" fill="black"/>
<path d="M24.9996 47.6111C25.8745 47.591 26.7141 47.262 27.3698 46.6825C28.0256 46.103 28.4553 45.3102 28.5829 44.4444H21.2773C21.4086 45.3338 21.8583 46.1451 22.543 46.7277C23.2277 47.3102 24.1007 47.6241 24.9996 47.6111Z" fill="black"/>
</svg>
