<svg width="40" height="34" viewBox="0 0 40 34" fill="none" xmlns="http://www.w3.org/2000/svg">
<g clip-path="url(#clip0_59_600)">
<path d="M34.2194 7.89407C34.3589 7.89407 34.4928 7.83862 34.5915 7.73993C34.6902 7.64123 34.7456 7.50737 34.7456 7.3678V5.61531C34.7451 5.15823 34.5633 4.72003 34.2401 4.39683C33.9169 4.07363 33.4787 3.8918 33.0216 3.89125H30.1934L29.5482 1.9872C29.5043 1.85771 29.4118 1.75037 29.2902 1.6879C29.1686 1.62543 29.0275 1.61273 28.8967 1.65249L13.579 6.30894C13.4522 6.35519 13.348 6.4483 13.2878 6.56908C13.2276 6.68986 13.216 6.82913 13.2554 6.95822C13.2948 7.0873 13.3821 7.19637 13.4995 7.26296C13.6169 7.32956 13.7553 7.34862 13.8864 7.31622L28.7156 2.80713L30.1292 6.98046C30.174 7.11264 30.2695 7.22161 30.3946 7.28339C30.5198 7.34517 30.6643 7.35471 30.7965 7.30991C30.9287 7.2651 31.0376 7.16963 31.0994 7.04448C31.1612 6.91934 31.1708 6.77477 31.1259 6.64259L30.5502 4.94274H33.0226C33.3931 4.94274 33.6942 5.24377 33.6942 5.61426V7.3678C33.6931 7.6583 33.9289 7.89407 34.2194 7.89407Z" fill="black"/>
<path d="M38.4198 15.7881C38.2802 15.7881 38.1463 15.8436 38.0476 15.9423C37.9489 16.041 37.8935 16.1748 37.8935 16.3144C37.8935 16.454 37.9489 16.5878 38.0476 16.6865C38.1463 16.7852 38.2802 16.8407 38.4198 16.8407C38.7892 16.8407 38.946 16.9975 38.946 17.367V23.6822C38.946 24.0517 38.7892 24.2085 38.4198 24.2085H29.9994C29.63 24.2085 29.4732 24.0517 29.4732 23.6822V18.4195C29.4732 18.0501 29.63 17.8932 29.9994 17.8932H36.3147C36.4543 17.8932 36.5881 17.8378 36.6868 17.7391C36.7855 17.6404 36.841 17.5065 36.841 17.367V11.0517C36.841 10.0928 36.221 9.47288 35.2621 9.47288H3.15958C1.8618 9.47288 1.0545 8.66558 1.0545 7.3678C1.0545 6.07001 1.8618 5.26271 3.15958 5.26271H8.50229L5.3173 6.31315C5.24928 6.33277 5.18592 6.3659 5.13101 6.41057C5.0761 6.45524 5.03076 6.51053 4.99772 6.57313C4.96467 6.63573 4.94459 6.70435 4.93868 6.77489C4.93277 6.84543 4.94116 6.91643 4.96333 6.98366C4.9855 7.05088 5.02101 7.11294 5.06772 7.16612C5.11444 7.21931 5.1714 7.26252 5.2352 7.29318C5.29901 7.32383 5.36834 7.3413 5.43905 7.34454C5.50976 7.34777 5.5804 7.33671 5.64674 7.31201L24.7178 1.02517C24.7834 1.00347 24.8442 0.969054 24.8965 0.92388C24.9489 0.878706 24.9918 0.823662 25.0229 0.761892C25.054 0.700122 25.0726 0.632834 25.0777 0.563872C25.0827 0.49491 25.0742 0.425623 25.0525 0.359968C25.0308 0.294312 24.9964 0.233574 24.9512 0.181221C24.906 0.128868 24.851 0.0859251 24.7892 0.0548446C24.7274 0.023764 24.6601 0.00515431 24.5912 7.80325e-05C24.5222 -0.00499824 24.4529 0.00355832 24.3873 0.0252592L11.6515 4.22491C11.6273 4.2207 11.6052 4.21017 11.5799 4.21017H3.15958C1.27132 4.21017 0.00195312 5.47954 0.00195312 7.3678V30.5237C0.00195312 32.412 1.27132 33.6814 3.15958 33.6814H35.2621C36.221 33.6814 36.841 33.0614 36.841 32.1026V26.8398C36.841 26.7003 36.7855 26.5664 36.6868 26.4677C36.5881 26.369 36.4543 26.3136 36.3147 26.3136C36.1751 26.3136 36.0412 26.369 35.9426 26.4677C35.8439 26.5664 35.7884 26.7003 35.7884 26.8398V32.1026C35.7884 32.472 35.6316 32.6288 35.2621 32.6288H3.15958C1.8618 32.6288 1.0545 31.8215 1.0545 30.5237V9.80128C1.59445 10.257 2.30913 10.5254 3.15958 10.5254H35.2621C35.6316 10.5254 35.7884 10.6823 35.7884 11.0517V16.8407H29.9994C29.0406 16.8407 28.4206 17.4606 28.4206 18.4195V23.6822C28.4206 24.6411 29.0406 25.261 29.9994 25.261H38.4198C39.3786 25.261 39.9986 24.6411 39.9986 23.6822V17.367C39.9986 16.4081 39.3786 15.7881 38.4198 15.7881Z" fill="black"/>
<path d="M33.6834 22.1034C34.2647 22.1034 34.7359 21.6322 34.7359 21.0509C34.7359 20.4696 34.2647 19.9983 33.6834 19.9983C33.1021 19.9983 32.6309 20.4696 32.6309 21.0509C32.6309 21.6322 33.1021 22.1034 33.6834 22.1034Z" fill="black"/>
</g>
<defs>
<clipPath id="clip0_59_600">
<rect width="40" height="33.6814" fill="white"/>
</clipPath>
</defs>
</svg>
